<svg width="173" height="34" viewBox="0 0 173 34" fill="none" xmlns="http://www.w3.org/2000/svg">
<path d="M3.42912 24.0009V27.6894C3.42912 28.4026 3.71318 29.0866 4.21884 29.5908C4.72451 30.0951 5.41033 30.3785 6.12545 30.3785H9.69992L3.49589 24.0485L3.42912 24.0009ZM16.6866 18.3754C16.6198 16.919 15.0354 15.653 15.0354 15.653L3.45773 3.55469C3.43853 3.6807 3.42899 3.80795 3.42912 3.9354V6.88624C3.41921 7.93598 3.59196 8.97947 3.93974 9.97031C4.26903 10.827 5.17579 11.4695 5.80574 12.1025L6.43566 12.726C6.95107 13.2543 7.47604 13.773 7.99622 14.2966L9.38021 15.6958C9.64269 15.9624 9.9099 16.2289 10.1724 16.5049L10.2058 16.5383C10.621 16.9856 10.3012 17.176 10.3012 17.176C10.0483 17.3949 9.63316 16.8238 9.63316 16.8238L3.42912 10.6366V13.5589C3.4196 13.9528 3.43392 14.347 3.47206 14.7392C3.51362 15.2354 3.59664 15.7274 3.72023 16.2098C4.06861 17.3568 5.43346 18.3182 6.24953 19.1369C6.77926 19.6699 7.30902 20.1982 7.83398 20.7312L9.26568 22.159C9.53771 22.4351 9.81448 22.7111 10.0817 22.9919L10.1151 23.03C10.5303 23.4727 10.2106 23.663 10.2106 23.663C9.95766 23.8819 9.54246 23.3156 9.54246 23.3156L3.43384 17.2188V22.3114C3.44622 22.7067 3.56137 23.0921 3.76794 23.4298L10.4492 30.2167L10.3872 30.3737H16.6914V18.4753C16.6865 18.4422 16.6849 18.4088 16.6866 18.3754Z" fill="#2D2928"/>
<path d="M30.3647 24.059L24.1607 30.389H27.7351C28.4507 30.389 29.137 30.1058 29.6434 29.6017C30.1499 29.0975 30.435 28.4136 30.4363 27.7V24.0114L30.3647 24.059ZM17.1358 18.5144V30.4128H23.44L23.378 30.2557L30.0593 23.4689C30.2637 23.1299 30.3801 22.7455 30.3981 22.3504V17.2579L24.2848 23.3547C24.2848 23.3547 23.8696 23.921 23.6166 23.7021C23.6166 23.7021 23.2969 23.5117 23.7121 23.0691L23.7455 23.031L24.5615 22.1982L25.9932 20.7703C26.5182 20.2373 27.048 19.709 27.5777 19.1759C28.3938 18.3573 29.7586 17.396 30.107 16.249C30.2329 15.767 30.3159 15.2748 30.3552 14.7783C30.3949 14.3861 30.4108 13.992 30.4029 13.5979V10.6757L24.1988 16.8629C24.1988 16.8629 23.7837 17.434 23.5308 17.2151C23.5308 17.2151 23.211 17.0247 23.6262 16.5773L23.6596 16.544C23.922 16.268 24.1893 16.0014 24.4518 15.7349L25.8405 14.3357C26.356 13.8121 26.8809 13.2934 27.4011 12.7651L28.0263 12.1416C28.6562 11.5086 29.563 10.8661 29.8923 10.0094C30.2416 9.01885 30.4159 7.97532 30.4076 6.92531V3.97452C30.4062 3.84695 30.3951 3.71964 30.3743 3.59375L18.8013 15.6921C18.8013 15.6921 17.2122 16.9581 17.1501 18.4144C17.1412 18.4484 17.13 18.4818 17.1167 18.5144H17.1358Z" fill="#2D2928"/>
<path d="M44.5668 9.64983C44.834 8.76935 45.5212 9.22154 45.5212 9.22154C45.5212 9.22154 47.3013 10.5732 52.2025 13.6763C57.1037 16.7794 63.1789 12.4722 63.1789 12.4722L48.6996 2.21094C44.6659 6.35289 39.7032 9.47999 34.2203 11.3347L52.7322 24.2754C52.4602 25.1607 51.7778 24.7085 51.7778 24.7085C51.7778 24.7085 49.9929 23.3568 45.0965 20.2537C40.2001 17.1506 34.1201 21.4579 34.1201 21.4579L48.6042 31.719C52.6371 27.5761 57.6 24.4489 63.0835 22.5953L44.5668 9.64983Z" fill="#2D2928"/>
<path d="M32.8172 1.10156H1V32.837H32.8172V1.10156Z" stroke="#2D2928" stroke-width="0.4"/>
<path d="M64.5724 1.10938H32.7505V32.8448H64.5724V1.10938Z" stroke="#2D2928" stroke-width="0.4"/>
<path d="M67.2402 27.2633L75.2864 27.3062C75.4248 28.063 75.2052 28.0582 75.63 28.4532C75.9833 28.7377 76.396 28.9397 76.8378 29.0443C77.2796 29.1489 77.7393 29.1535 78.1832 29.0576C78.8895 28.9339 79.9823 28.715 80.0348 27.844C80.0921 26.8922 79.4335 26.559 78.6031 26.4543C77.4625 26.3067 76.3077 26.2639 75.1671 26.083C72.2321 25.6071 70.6715 25.3882 69.4164 24.5933C68.1613 23.7985 68.0515 22.0614 68.0515 20.8287C68.068 19.9713 68.409 19.1518 69.006 18.5347C69.8089 17.7184 70.8154 17.1303 71.9219 16.8308C73.657 16.3643 75.4516 16.1558 77.2478 16.2121C80.0158 16.2121 82.1267 16.5865 83.5807 17.3353C85.0124 18.0825 85.9 19.7531 86.1768 21.3808H79.3333C79.3858 21.2856 79.2045 20.8477 79.1758 20.743C78.9134 19.7912 77.9923 19.5199 77.1189 19.3152C76.3867 19.1104 75.6039 19.1903 74.9285 19.5389C74.5371 19.7769 74.2317 20.0148 74.2317 20.3813C74.2459 20.5255 74.2973 20.6636 74.3809 20.782C74.4646 20.9005 74.5776 20.9953 74.709 21.0572C75.4206 21.374 76.1803 21.5702 76.9567 21.6378C79.0902 21.9159 81.195 22.381 83.2467 23.0275C84.3036 23.3643 85.2553 23.9676 86.0098 24.779C86.5711 25.4269 86.8795 26.2548 86.8784 27.1111C86.8661 28.1568 86.4528 29.1581 85.7235 29.9096C84.8432 30.8336 83.7309 31.5057 82.5022 31.8561C80.8065 32.3356 79.0479 32.5571 77.286 32.5129C73.6017 32.5129 71.0565 31.9973 69.6502 30.9661C68.2328 29.9381 67.4264 28.8577 67.2402 27.2633Z" fill="#2D2928"/>
<path d="M99.8733 16.5156H105.82V27.6621C105.82 29.9498 104.388 31.5711 101.525 32.5261C100.207 32.9592 98.6278 33.0021 96.8381 33.0021C95.2299 33.0021 93.7886 33.0306 92.4571 32.6832C89.3201 31.4362 87.7532 29.7705 87.7564 27.6858V16.5394H93.7409V26.0819C93.7409 27.8239 93.97 29.1137 96.8381 29.1137C99.7063 29.1137 99.8161 27.7668 99.8161 26.0248L99.8733 16.5156Z" fill="#2D2928"/>
<path d="M138.744 16.5156H144.686V27.6621C144.686 29.9498 143.254 31.5711 140.391 32.5261C139.069 32.9592 137.489 33.0021 135.699 33.0021C134.096 33.0021 132.655 33.0306 131.323 32.6832C128.183 31.4362 126.613 29.7705 126.613 27.6858V16.5394H132.602V26.0819C132.602 27.8239 132.836 29.1137 135.699 29.1137C138.563 29.1137 138.677 27.7668 138.677 26.0248L138.744 16.5156Z" fill="#2D2928"/>
<path d="M107.042 16.625H125.458V20.0518L116.458 28.1141H125.458V32.6022H107.042V28.7424L115.833 20.7942H107.061L107.042 16.625Z" fill="#2D2928"/>
<path d="M146.16 32.5696V16.5781H152.059V22.4893L158.425 16.5781H165.813L157.337 24.3216L166.166 32.5553H158.196L152.121 26.8441L152.178 32.5553L146.16 32.5696Z" fill="#2D2928"/>
<path d="M172.9 16.5781V32.5553H167.011V16.5781H172.9Z" fill="#2D2928"/>
<path d="M67.3403 1.39062H75.9305L79.2378 9.21982L82.5259 1.39062H91.1161V14.2409H85.7806V4.4414L81.6573 14.2409H76.8277L72.714 4.4414V14.2409H67.3738L67.3403 1.39062Z" fill="#2D2928"/>
<path d="M104.503 12.3713H98.337L97.4684 14.4987H91.9277L98.5326 1.64844H104.488L111.093 14.4987H105.395L104.503 12.3713ZM103.367 9.58709L101.458 4.97047L99.5491 9.58709H103.367Z" fill="#2D2928"/>
<path d="M112.391 14.4974V1.64711H121.459C122.752 1.61232 124.044 1.71765 125.315 1.96124C126.133 2.13015 126.882 2.53765 127.467 3.13203C127.734 3.40781 127.943 3.73361 128.084 4.09058C128.224 4.44756 128.291 4.82863 128.283 5.21187C128.298 5.88148 128.077 6.53513 127.658 7.05851C127.191 7.60857 126.598 8.03935 125.93 8.31499C125.317 8.56167 124.676 8.73267 124.021 8.82421C124.516 8.92449 124.997 9.0843 125.453 9.30015C125.766 9.49344 126.057 9.72006 126.322 9.976C126.6 10.2188 126.854 10.4882 127.08 10.7804L129.734 14.5069H123.587L120.671 10.5709C120.418 10.1738 120.083 9.8348 119.688 9.57623C119.272 9.37558 118.814 9.27454 118.352 9.28115H117.875V14.5165L112.391 14.4974ZM117.851 6.83959H120.151C120.631 6.81055 121.11 6.75174 121.583 6.6635C121.913 6.62546 122.222 6.48379 122.466 6.25897C122.573 6.16676 122.658 6.05278 122.718 5.92473C122.777 5.79668 122.808 5.6575 122.809 5.51648C122.815 5.32328 122.767 5.13223 122.671 4.96431C122.575 4.7964 122.435 4.6581 122.265 4.5646C121.625 4.2875 120.927 4.17305 120.232 4.23147H117.846L117.851 6.83959Z" fill="#2D2928"/>
<path d="M141.879 1.51562H147.31V9.1782C147.317 9.92208 147.154 10.6577 146.833 11.3294C146.479 12.0369 145.954 12.6455 145.306 13.1C144.652 13.5874 143.912 13.9489 143.125 14.1661C141.876 14.4742 140.593 14.6181 139.307 14.5944C138.448 14.5944 137.513 14.5516 136.501 14.4659C135.633 14.4078 134.777 14.2316 133.957 13.9423C133.274 13.6832 132.641 13.308 132.086 12.8334C131.588 12.4384 131.191 11.9311 130.927 11.3533C130.621 10.667 130.449 9.92873 130.421 9.1782V1.51562H135.833V9.35905C135.82 9.67697 135.886 9.99312 136.025 10.2795C136.164 10.5659 136.372 10.8137 136.63 11.0011C137.289 11.4302 138.068 11.637 138.854 11.5912C139.633 11.6354 140.407 11.4322 141.063 11.0106C141.324 10.8235 141.534 10.5744 141.674 10.2861C141.814 9.99771 141.879 9.6791 141.865 9.35905L141.879 1.51562Z" fill="#2D2928"/>
<path d="M148.441 1H164.978V5.41671H160.057V14.4976H153.658V5.29296H148.441V1Z" fill="#2D2928"/>
<path d="M166.776 1.35156H172.718V14.4826H166.776V1.35156Z" fill="#2D2928"/>
</svg>
