<svg width="51" height="33" viewBox="0 0 51 33" fill="none" xmlns="http://www.w3.org/2000/svg">
<path fill-rule="evenodd" clip-rule="evenodd" d="M14.8356 27.2607L14.7325 26.8952H15.9466L17.3388 30.2009V27.269L17.1745 26.8952H18.5974L18.4526 27.269V31.7325L18.5556 32.0951H17.3444L15.9521 28.8675V31.7241L16.1164 32.0979H14.6936L14.8383 31.7241V27.2607H14.8356ZM25.6949 4.81497C25.319 6.20981 26.8421 7.78318 28.5824 5.09394L28.148 4.77591C28.5128 4.18729 29.0836 3.87485 29.9579 3.93901C29.3751 4.37425 28.9115 4.95001 28.6102 5.61281C27.6217 7.507 29.699 8.9381 31.0578 6.83469L30.3171 6.27675C31.0438 5.10788 32.1827 4.48579 33.9174 4.60295C31.5283 6.36323 30.0888 9.34539 29.9913 14.0878C26.9985 13.3165 23.8595 13.3165 20.8667 14.0878C20.7692 9.34539 19.3297 6.36602 16.9406 4.60295C18.6753 4.48858 19.8142 5.11067 20.5409 6.27675L19.8002 6.83469C21.159 8.9381 23.2362 7.507 22.2478 5.61281H22.2617C21.9605 4.95077 21.498 4.3752 20.9168 3.93901C21.7911 3.88322 22.3619 4.19566 22.7267 4.77591L22.2895 5.09394C24.027 7.78039 25.5362 6.23212 25.1687 4.83171C24.6285 4.74244 24.1551 4.27377 24.2442 3.73258L24.8624 0.00837718V3.40898C24.8624 3.48005 24.8763 3.55042 24.9035 3.61608C24.9306 3.68174 24.9704 3.74141 25.0206 3.79166C25.0708 3.84192 25.1303 3.88178 25.1958 3.90898C25.2614 3.93617 25.3316 3.95018 25.4025 3.95018C25.545 3.94668 25.6806 3.8886 25.7816 3.78793C25.8826 3.68726 25.9413 3.55166 25.9455 3.40898V0L26.5637 3.72422C26.65 4.24868 26.21 4.70338 25.6921 4.81497H25.6949ZM21.7104 9.94238L21.6101 10.2464H21.2927L21.5517 10.4362L21.4514 10.7374L21.7104 10.5505L21.9665 10.7374L21.8691 10.4362L22.1253 10.2464H21.7967L21.6992 9.94238H21.7104ZM29.2284 9.94238L29.1281 10.2464H28.8107L29.0697 10.4362L28.9694 10.7374L29.2284 10.5505L29.4845 10.7374L29.3843 10.4362L29.6433 10.2464H29.3147L29.2173 9.94238H29.2284ZM25.4332 8.47781V11.8505C25.397 11.9454 25.3608 12.0374 25.3274 12.1295C25.6782 12.1295 26.029 12.1295 26.3799 12.1574C26.3381 12.0597 26.2991 11.9621 26.2574 11.8784V9.72478C26.4272 10.146 26.5971 10.5617 26.7669 10.9885C26.9368 11.4153 27.1094 11.8421 27.282 12.2718C27.58 12.3248 27.8779 12.3861 28.1787 12.4559L28.1035 12.1769V8.84605L28.2093 8.60335C27.8584 8.50013 27.5076 8.41086 27.1568 8.34112L27.2765 8.64239C27.2765 9.01062 27.2765 9.37607 27.2765 9.74152V10.8406C27.1066 10.3999 26.934 9.95912 26.7641 9.52393C26.5943 9.08875 26.4217 8.65634 26.2518 8.22673C25.9539 8.20999 25.6532 8.20164 25.3552 8.20442L25.4304 8.48339L25.4332 8.47781ZM23.5648 9.16407V11.5967C23.7514 11.5688 23.9407 11.5409 24.1217 11.5185C24.183 11.446 24.247 11.3791 24.3083 11.3065V10.7598L24.1495 10.5756L23.5592 11.022V10.2102C23.8098 10.0177 24.0604 9.8308 24.3083 9.65226V9.23102L24.1217 9.06363C23.9351 9.09153 23.7458 9.11943 23.5648 9.15569V9.16407ZM22.6738 8.60614L22.7323 8.8572V12.1797L22.6738 12.4587L22.7991 12.4336C23.0553 12.3806 23.3086 12.3359 23.5648 12.2941C23.8989 12.2439 24.2303 12.2048 24.5644 12.1741C24.7482 11.99 24.9347 11.8031 25.1213 11.6162V10.3971L24.7928 10.1377L25.1213 9.83358V8.75957C24.9347 8.59219 24.7482 8.42759 24.5644 8.26858C24.2303 8.30764 23.8989 8.35507 23.5648 8.41365C23.3086 8.46665 23.0553 8.52245 22.7991 8.58661L22.6738 8.61729V8.60614ZM0.0779728 29.7016C4.55637 28.8706 9.07388 28.2672 13.6132 27.8939V26.9928C9.06037 27.4605 4.54025 28.2058 0.0779728 29.2246V29.6904V29.7016ZM37.5149 27.9664C42.0109 28.3477 46.5059 28.9261 51 29.7016V29.2357C46.5476 28.2646 42.0459 27.5355 37.5149 27.0514V27.9664ZM7.34538 15.8844C7.41221 16.1271 7.47624 16.3698 7.54864 16.6125C7.31475 18.0073 7.07807 19.4021 6.85253 20.8221C6.62699 22.242 6.3931 23.7094 6.16478 25.1851C6.0534 25.4418 5.94203 25.704 5.83066 25.9662C6.66599 25.8491 7.50133 25.7486 8.33666 25.6454C8.2754 25.425 8.21972 25.1991 8.16403 24.9731C8.21693 24.524 8.27262 24.0748 8.33387 23.6285L9.7261 23.5336C9.78736 23.9577 9.8486 24.3706 9.91542 24.8002C9.85973 25.0261 9.80406 25.2549 9.75115 25.4781L12.2154 25.2353C12.1059 25.0345 12 24.8336 11.898 24.6328C11.6566 23.383 11.4125 22.1193 11.1656 20.8416C10.9206 19.55 10.6839 18.2416 10.4445 16.9361C10.5141 16.7297 10.5865 16.526 10.6617 16.3224C9.54789 16.194 8.45639 16.0434 7.35653 15.8983L7.34538 15.8844ZM9.01605 18.8637C9.08288 19.3519 9.15527 19.8373 9.21931 20.3227C9.28335 20.8081 9.35853 21.2852 9.42814 21.765L8.62622 21.7817C8.69026 21.2908 8.75154 20.7998 8.81837 20.3144C8.88519 19.829 8.94644 19.3464 9.01605 18.8637ZM0.00278717 14.7099L0.281232 14.7601L2.02988 15.0726C2.78725 15.2093 3.5446 15.3376 4.30754 15.4548C4.73077 16.0127 5.14289 16.5316 5.58005 17.0532V18.4676C5.58005 18.9391 5.58005 19.4105 5.58005 19.882C5.33223 20.1247 5.08162 20.3757 4.8338 20.6268C5.08255 20.8779 5.33317 21.1262 5.58562 21.3716V22.1974C5.58562 23.012 5.58562 23.8266 5.58562 24.6384C5.16239 25.1461 4.74007 25.6631 4.31869 26.1894C3.55575 26.301 2.79839 26.4209 2.03824 26.5493L0.289594 26.8478L0.0111487 26.8924C0.0473465 26.6134 0.089097 26.3122 0.133648 26.0192C0.133648 24.2785 0.133648 22.5387 0.133648 20.7998C0.133648 19.0609 0.133648 17.3192 0.133648 15.5747C0.0863125 15.2958 0.0417668 15.0168 0 14.7155L0.00278717 14.7099ZM2.03266 17.2764C2.03266 18.4667 2.03266 19.6579 2.03266 20.85C2.03266 22.0421 2.03266 23.2324 2.03266 24.4208C2.45868 24.3761 2.8847 24.3287 3.3135 24.2869L3.73953 23.7289C3.73953 23.2435 3.73953 22.7553 3.73953 22.2671C3.61702 22.083 3.49449 21.8989 3.37754 21.7092C2.92367 22.0607 2.47539 22.4261 2.02988 22.8C2.02988 22.0021 2.02988 21.2015 2.02988 20.4008C2.60162 19.9805 3.16964 19.5714 3.73396 19.1734V17.9989L3.30514 17.441L2.0243 17.2987L2.03266 17.2764ZM12.9588 17.1481L12.7918 16.5288C14.2119 16.6515 15.6347 16.7659 17.0603 16.8636C17.4761 17.2541 17.8947 17.64 18.3161 18.0213C18.3161 18.5095 18.3161 18.9977 18.3161 19.4858C18.3161 19.974 18.3161 20.4622 18.3161 20.9504C17.9848 21.274 17.6534 21.5976 17.3248 21.9268C17.5281 22.3174 17.7398 22.7079 17.943 23.0929C18.1463 23.4779 18.3607 23.8572 18.5751 24.2366C18.7477 24.418 18.9259 24.5965 19.1041 24.7723L16.3976 24.9145C16.4422 24.7193 16.4895 24.524 16.5396 24.3287C16.3614 23.9577 16.1888 23.5867 16.0162 23.2128C15.8435 22.839 15.6709 22.4652 15.4983 22.097H14.8411C14.8411 22.4847 14.8411 22.8725 14.8411 23.2603C14.8411 23.648 14.8411 24.0358 14.8411 24.4208C14.933 24.616 15.0249 24.8057 15.1196 24.9982L12.7027 25.1796C12.7834 24.9675 12.8642 24.7527 12.9477 24.5407C12.9477 23.3105 12.9477 22.0774 12.9477 20.8444C12.9477 19.6114 12.9477 18.3783 12.9477 17.1453L12.9588 17.1481ZM14.8356 18.2249C14.8356 18.6043 14.8356 18.9865 14.8356 19.3659C14.8356 19.7453 14.8356 20.1275 14.8356 20.5069H16.0774L16.5202 20.1079C16.5202 19.6393 16.5202 19.1706 16.5202 18.7131C16.3615 18.568 16.2111 18.4341 16.0579 18.2695L14.8356 18.2249ZM19.622 17.0086H19.9005L21.6435 17.0644C22.4037 17.0867 23.1611 17.1035 23.924 17.1063C24.3435 17.4522 24.7668 17.7962 25.1937 18.1384V19.1678C25.1937 19.5082 25.1937 19.8541 25.1937 20.1972L24.4475 20.7551L25.1937 21.288V21.885C25.1937 22.4792 25.1937 23.0706 25.1937 23.662C24.7686 23.9949 24.3445 24.3287 23.9212 24.6635C23.1583 24.6635 22.4009 24.6635 21.6435 24.6942L19.9032 24.7472H19.6248C19.6638 24.5658 19.7056 24.3817 19.7529 24.1892C19.7529 23.0734 19.7529 21.9631 19.7529 20.8584C19.7529 19.7425 19.7529 18.6266 19.7529 17.5275C19.7056 17.349 19.661 17.1704 19.6193 16.9891L19.622 17.0086ZM21.6519 18.5401C21.6519 19.3296 21.6519 20.1219 21.6519 20.9114C21.6519 21.7008 21.6519 22.4931 21.6519 23.2826C22.0779 23.2826 22.5067 23.2826 22.9327 23.2826L23.3615 22.9116C23.3615 22.574 23.3615 22.2392 23.3615 21.8989C23.239 21.7706 23.1165 21.6395 22.9996 21.5084C22.5485 21.7408 22.0993 21.9761 21.6519 22.2141V20.6212C22.2088 20.3423 22.7907 20.0466 23.356 19.7564V18.9335L22.9105 18.5708C22.4817 18.5708 22.0556 18.5513 21.6268 18.5457L21.6519 18.5401ZM25.8843 17.1453C25.9567 17.3183 26.0263 17.494 26.1042 17.6698C26.1042 18.7466 26.1042 19.8234 26.1042 20.9002V24.1362C26.0235 24.3148 25.9427 24.4905 25.8675 24.669C27.6719 24.6932 29.479 24.7351 31.2889 24.7946C31.3863 24.259 31.481 23.7206 31.584 23.1794L30.9575 23.3216C29.9718 23.2993 28.9861 23.2742 28.0032 23.2603V21.4693C28.5601 21.4693 29.1003 21.4693 29.6516 21.4693L30.4145 21.6674C30.4145 21.0676 30.4145 20.465 30.4145 19.8652L29.7129 20.0521H28.0032V18.4871C28.6687 18.4871 29.3425 18.4732 30.0136 18.4565L31.1469 18.6852C31.0243 18.1273 30.9028 17.5693 30.7821 17.0114C29.1476 17.0783 27.516 17.1035 25.8815 17.1286L25.8843 17.1453ZM32.3136 18.1496V20.903C32.3136 21.8329 32.3136 22.7525 32.3136 23.662L33.5387 24.9313C34.4854 24.9871 35.4321 25.054 36.3844 25.1321L37.2198 25.8965C37.617 25.5562 38.0143 25.2112 38.4115 24.8615L37.7599 24.0665C37.7599 23.0287 37.7599 21.991 37.7599 20.9532V17.826C37.3172 17.4243 36.88 17.0309 36.4429 16.6404C35.4962 16.7241 34.5523 16.7854 33.6111 16.8468C33.1768 17.282 32.7507 17.7116 32.3219 18.1356L32.3136 18.1496ZM34.2181 18.7382L34.6191 18.3421L35.4878 18.3086L35.8971 18.6768V20.8723C35.8971 21.6051 35.8971 22.3387 35.8971 23.0734L35.4043 23.4555C35.1509 23.4416 34.8947 23.4332 34.6469 23.4249L34.2153 23.012C34.2153 22.3034 34.2153 21.5893 34.2153 20.8751C34.2153 20.1609 34.2153 19.4524 34.2153 18.7382H34.2181ZM38.6008 16.5065L38.7846 17.1063V24.0414C39.2079 24.5128 39.62 24.9954 40.0516 25.4836C41.0094 25.5841 41.9691 25.6947 42.9307 25.8156C43.3595 25.3888 43.7855 24.948 44.2115 24.4989C44.2115 23.171 44.2115 21.845 44.2115 20.5208V16.5121L44.3786 15.7812L42.0981 16.0601C42.1594 16.2833 42.2206 16.5037 42.2874 16.7241C42.2874 17.8399 42.3042 18.9391 42.307 20.0466C42.3097 21.1541 42.3237 22.2644 42.332 23.3719C42.19 23.5448 42.0536 23.7178 41.9171 23.8879C41.6164 23.8656 41.3157 23.8405 41.015 23.821C40.8952 23.6369 40.7727 23.4555 40.6502 23.2631V16.897C40.7198 16.6711 40.7922 16.4479 40.8674 16.2247L38.6036 16.473L38.6008 16.5065ZM45.1638 15.6947C45.2362 15.9262 45.3114 16.1578 45.3865 16.3921V25.3888C45.3058 25.6287 45.225 25.8686 45.1499 26.1057C46.9542 26.3624 48.7632 26.6413 50.5768 26.9426C50.6742 26.1057 50.7689 25.2688 50.8719 24.4319L50.2399 24.6132C49.2542 24.5128 48.2657 24.4124 47.2856 24.3175V21.7064L48.9395 21.7399L49.7024 22.0523V19.285C49.4685 19.3938 49.2346 19.4942 49.0008 19.5974C48.4244 19.6225 47.8536 19.6476 47.2856 19.6672V17.3852C47.9566 17.3183 48.6277 17.2429 49.2987 17.1676C49.6746 17.2541 50.0533 17.3434 50.4292 17.4466C50.3067 16.5874 50.1842 15.7356 50.0616 14.8913C48.43 15.1702 46.7955 15.4492 45.1638 15.7058V15.6947ZM50.8719 12.269C45.0691 13.3458 36.9831 14.1436 31.1803 14.4561V15.4157C37.1501 15.0335 44.9021 14.1018 50.8719 12.7348V12.269ZM20.8723 14.523V15.4659C23.8709 14.7259 27.0039 14.7259 30.0025 15.4659V14.523C27.0111 13.7252 23.8636 13.7252 20.8723 14.523ZM0.00278717 12.269V12.7125C5.97265 14.0795 13.7246 15.0112 19.6944 15.3934V14.4337C13.8916 14.1213 5.80558 13.3179 0.00278717 12.2467V12.269ZM32.6477 27.2885L32.5474 26.9231H33.7587L35.1509 30.2289V27.2969L34.9866 26.9231H36.4095L36.2675 27.2969V31.7604L36.3705 32.123H35.1593L33.767 28.8954V31.752L33.9313 32.1258H32.5085L32.6533 31.752V27.2885H32.6477ZM28.8525 27.7181V31.3447L29.5764 32.137H31.2471L32.0574 31.3447V27.7014L31.2805 26.9231H29.6099L28.8497 27.7181H28.8525ZM29.9663 28.1505L30.2057 27.9078H30.7181L30.9575 28.1505V30.8454L30.6791 31.0992H30.2336L29.9774 30.8482V28.1143L29.9663 28.1505ZM28.1787 27.2969L28.3179 26.9231H26.9257L27.0649 27.2969V31.7604L26.9257 32.1314H28.3179L28.1787 31.7604V27.2969ZM23.899 27.8772V30.2009V31.7576L23.7597 32.1286H25.152L25.0127 31.7576V27.8772H25.8703L26.5386 28.0557L26.3131 26.9231H22.5875L22.3647 28.0557L23.033 27.8772H23.899ZM19.8504 26.9231H21.7688L21.6407 27.2997L22.4761 31.7632L22.6654 32.1342H21.2064L21.3038 31.7632L21.198 31.0462H20.3766L20.2736 31.7632L20.3766 32.1342H18.9009L19.0986 31.7632L19.9339 27.2997L19.8448 26.9231H19.8504ZM20.7999 28.4491L20.5604 30.0475H21.0365L20.7999 28.4491Z" fill="#2D2928"/>
</svg>
