<svg width="149" height="33" viewBox="0 0 149 33" fill="none" xmlns="http://www.w3.org/2000/svg">
<path d="M88.1249 8.08043C87.2779 8.96141 86.4048 9.81624 85.7722 10.8828C86.6532 10.2763 87.3224 9.3457 88.5066 9.27773C87.5185 10.2031 86.3656 10.9351 85.4559 11.939L85.5238 12.0671C85.6498 12.0312 85.7716 11.9822 85.8872 11.9207C86.4875 11.5232 87.1598 11.247 87.8661 11.1077C87.955 11.0894 88.0465 11.0894 88.2347 11.0737C87.3381 11.5599 86.5251 11.9991 85.7147 12.4435C85.4667 12.5505 85.2352 12.6922 85.0271 12.8644C84.7939 13.0813 84.6149 13.3499 84.5043 13.6486C84.4413 13.8815 84.3221 14.0953 84.1571 14.2713C83.9921 14.4472 83.7863 14.5799 83.558 14.6577C82.8505 14.9286 82.2134 15.3558 81.6941 15.9073C81.4771 16.1426 81.4326 16.2994 81.7359 16.5268C82.3068 16.9617 82.845 17.4379 83.3462 17.9516C83.6107 18.291 83.8279 18.6648 83.9919 19.0626C84.0337 19.1437 83.9919 19.2665 83.9919 19.3711C83.9644 19.6545 83.9644 19.9399 83.9919 20.2233C84.0886 20.7461 83.9684 21.0912 83.5344 21.269C83.5083 21.2402 83.4638 21.2115 83.4508 21.1749C83.1345 20.158 82.2849 19.7475 81.396 19.3972C80.9464 19.2195 80.5098 19.4129 80.2275 19.873C79.9452 20.3331 79.6393 20.8664 79.3361 21.3579C79.2811 21.4268 79.2525 21.5131 79.2554 21.6012C79.2583 21.6894 79.2924 21.7736 79.3517 21.8389C80.0962 22.7399 80.6855 23.7585 81.0954 24.853C81.3699 25.6059 81.9659 25.8699 82.7136 25.9405C83.3462 25.998 83.9475 25.9771 84.4625 25.5432C84.5958 25.4308 84.7239 25.3079 84.8912 25.1432C85.3356 25.1432 86.0702 24.772 86.214 24.4165C86.7462 24.444 87.2689 24.2673 87.6753 23.9224C88.2373 23.9896 88.8071 23.9113 89.3301 23.6949L91.1182 24.0008V24.1106C91.0633 24.1341 91.0058 24.1838 90.9535 24.1812C89.5052 24.0871 88.2243 24.6099 86.9799 25.2582C85.5369 26.0085 84.3291 27.0882 83.043 28.0685C81.647 29.1298 80.2536 30.2016 78.7975 31.1767C77.6439 32.0009 76.2451 32.41 74.8292 32.3374C73.7365 32.2616 73.2293 31.8146 73.1117 30.7689C73.3878 30.7979 73.6654 30.8102 73.943 30.8055C74.2044 30.7898 74.5338 30.8996 74.6724 30.5441C75.2213 30.7062 76.0265 30.4474 76.1781 30.0683C76.4346 30.0893 76.692 30.0397 76.9224 29.925C77.1528 29.8103 77.3474 29.6347 77.4852 29.4174C77.9924 29.4174 78.6433 29.0488 78.7479 28.756C78.9684 28.6883 79.1849 28.608 79.3962 28.5155C79.6968 28.3612 79.7543 28.1417 79.5374 27.8907C79.379 27.7346 79.1928 27.6096 78.9884 27.5221C78.9335 27.496 78.7975 27.5744 78.7269 27.6371C78.6496 27.7426 78.5847 27.8566 78.5335 27.977L77.9819 27.5744L77.8434 28.0554L77.3833 27.3757C77.0905 27.692 76.9049 27.5404 76.7297 27.3757C76.5964 27.245 76.4683 27.1143 76.3481 26.9627C76.2278 26.811 76.0866 26.6673 75.9612 26.994C75.5769 26.4712 75.0776 26.0712 75.122 25.3236L73.5117 26.066L73.462 25.9719L73.794 25.5379L73.096 25.4464C73.2764 25.0935 73.4437 24.7851 73.5927 24.4714C73.6306 24.3551 73.6551 24.235 73.6659 24.1132C73.5429 24.0885 73.4175 24.078 73.2921 24.0818C72.5366 24.1629 71.7811 24.257 71.0256 24.3433L70.9942 24.2282L71.5824 23.8727C70.8478 23.7524 70.1577 24.1184 69.5093 23.6766L69.9904 23.4675V23.3394C69.8108 23.267 69.6213 23.2221 69.4283 23.2061C68.7042 23.2662 67.98 23.3603 67.2559 23.4414C66.5318 23.5224 65.7841 23.6061 65.0469 23.6792C64.9139 23.6717 64.7822 23.648 64.6548 23.6087L65.1018 23.3107L64.4561 23.1773L65.013 22.9839L64.4901 22.6989L65.5358 22.5735L65.3241 22.312L66.7488 22.1055V22.0219L66.0795 21.7892C67.4023 21.9199 68.7356 22.2022 70.0426 21.8833C71.3294 21.5544 72.5677 21.0587 73.726 20.4089C73.6042 20.3303 73.4631 20.287 73.3182 20.2838C73.1733 20.2805 73.0303 20.3175 72.9052 20.3906C72.6725 20.5056 72.4608 20.652 72.2281 20.7749C71.6687 21.0363 71.4831 20.937 71.4438 20.2913C71.3314 20.307 71.2216 20.32 71.1171 20.3409C70.874 20.3906 70.6361 20.4586 70.3929 20.4952C70.1498 20.5318 70.0165 20.4455 70.0296 20.1893C70.0453 19.8495 69.8544 19.7658 69.559 19.7867C69.2636 19.8076 69.0362 19.8103 68.7748 19.805C68.5007 19.8117 68.2337 19.7178 68.0242 19.5411C67.8147 19.3643 67.6771 19.1169 67.6376 18.8456C67.601 18.6443 67.5513 18.5502 67.3291 18.5006C67.1418 18.4311 66.9754 18.3151 66.8455 18.1633C65.4732 16.8597 64.458 15.2262 63.8967 13.4186C63.8272 13.0553 63.7844 12.6875 63.7686 12.318C63.7438 12.1974 63.6816 12.0876 63.5908 12.0043C63.2719 11.7037 62.9399 11.4161 62.5792 11.0972L63.0523 10.7495L62.4302 9.92604L62.9765 9.64371C62.7935 9.46333 62.6288 9.3091 62.4746 9.14702C62.153 8.80718 62.2132 8.62418 62.6602 8.53791C63.0628 8.45949 63.4732 8.41505 63.9673 8.34708C63.2771 7.86346 62.2576 7.96801 61.9021 6.97724L63.8967 7.12103L63.9359 6.97202C63.1517 6.49101 62.2158 6.18775 61.7139 5.27802L65.1855 6.34461L65.2456 6.26619C65.0993 6.12012 64.942 5.98554 64.7751 5.86361C64.3202 5.57082 63.8287 5.34077 63.3896 5.014C62.9944 4.70385 62.6173 4.3713 62.2602 4.018C62.1975 3.96048 62.1792 3.85853 62.0955 3.68861C62.2648 3.71521 62.4312 3.75811 62.5922 3.8167C63.7425 4.38659 64.8849 4.97217 66.0377 5.53422C66.205 5.61526 66.537 5.68584 66.5945 5.61002C66.788 5.34861 66.4664 5.26757 66.3331 5.13947C65.677 4.51207 64.979 3.9265 64.3594 3.26773C64.0336 2.86797 63.7506 2.43513 63.515 1.97632C63.4706 1.90051 63.515 1.76718 63.515 1.66C63.6067 1.69154 63.6945 1.73364 63.7764 1.78547L67.5566 5.03752C67.6977 5.15516 67.8415 5.33814 68.116 5.13162C67.8964 4.87021 67.6899 4.62186 67.4755 4.38136C66.7645 3.5971 66.056 2.79716 65.6456 1.80116C65.4073 1.33189 65.3162 0.801607 65.3842 0.279703C65.4955 0.385296 65.597 0.500797 65.6874 0.624777C66.5422 2.05735 67.6402 3.30954 68.6937 4.5931C68.8976 4.84145 68.9368 4.84145 69.2166 4.74211C68.3617 3.2651 67.0651 1.96325 67.2978 0.0601211L67.4075 0L67.7526 0.603875L70.3485 5.18391C70.3668 5.21528 70.3773 5.2545 70.406 5.2728C70.5289 5.35384 70.6674 5.42964 70.7825 5.50807C70.7825 5.36167 70.8374 5.18914 70.7825 5.06889C70.2819 4.0042 70.0094 2.84663 69.9825 1.67045C69.9916 1.51675 70.0161 1.36436 70.0557 1.21558H70.1498C70.3119 1.73842 70.4687 2.23512 70.6387 2.74227C70.9994 3.82193 71.3811 4.89896 71.734 5.98385C71.9644 6.63187 72.3843 7.19567 72.9392 7.60203C73.2764 7.87652 73.6162 8.1484 73.9404 8.44119C74.3219 8.79524 74.5987 9.24744 74.7403 9.74828C75.1795 11.1835 75.6893 12.5873 76.5546 13.8316C76.7963 14.1662 77.0582 14.4857 77.3388 14.7884C77.461 14.8986 77.5962 14.9934 77.7414 15.0707L77.8355 14.9819C77.7918 14.8618 77.7367 14.7463 77.6708 14.6368C77.0779 13.7997 76.6012 12.886 76.2539 11.9207C76.2039 11.8092 76.1855 11.6861 76.2007 11.5648C76.2159 11.4435 76.2642 11.3288 76.3402 11.2331C77.2571 9.99121 78.4147 8.94658 79.7439 8.16147C79.9706 8.07259 80.2051 8.00519 80.4445 7.96017C80.5658 7.92258 80.6731 7.84979 80.7529 7.75104C80.9098 7.52622 80.9778 7.21252 81.3725 7.33016C81.4379 7.35107 81.5372 7.25696 81.6209 7.21252C81.7045 7.16808 81.7777 7.08182 81.8614 7.07136C82.0182 7.05567 82.196 7.12887 82.3319 7.07136C82.4679 7.01385 82.575 6.86745 82.7528 6.70537L83.0142 7.48962L83.4482 6.59558L83.5815 6.63218L83.7253 7.80856H83.8142L84.4729 6.27142L84.635 6.31062L84.3553 8.51699L84.4468 8.54836C84.9461 7.90527 84.9199 6.95633 85.5892 6.4152L85.7042 6.4518C85.6179 6.81517 85.5447 7.18377 85.4428 7.54191C85.3068 8.00462 85.1317 8.45688 84.9958 8.91959C84.9761 9.06882 84.9761 9.21999 84.9958 9.36922C85.1203 9.2825 85.2351 9.18258 85.3382 9.0712C85.7722 8.48562 86.1826 7.88697 86.6218 7.30663C86.7552 7.17385 86.9066 7.06035 87.0714 6.9694L87.1655 7.05829C86.8571 7.58113 86.5477 8.10396 86.2375 8.6268C85.9892 9.03984 85.733 9.45027 85.4925 9.86854C85.4332 9.9902 85.4157 10.1281 85.4428 10.2607C86.2767 9.46857 86.8414 8.32616 88.1249 8.08043ZM81.4745 27.1639C81.7829 27.0411 82.0156 26.9627 82.2352 26.8555C82.3136 26.8163 82.426 26.6803 82.4077 26.6411C82.3571 26.5136 82.265 26.4068 82.1463 26.3379C81.9241 26.2359 81.0745 26.5104 80.8784 26.7535C80.6876 26.6124 80.4915 26.3457 80.3033 26.3483C79.7805 26.3614 79.5191 25.9928 79.1426 25.7732C79.0299 25.7079 78.9378 25.6123 78.8768 25.4972C78.8158 25.3821 78.7883 25.2522 78.7975 25.1223C78.7975 24.7249 78.8315 24.338 78.8524 23.9302C78.8524 23.7159 78.8864 23.5041 78.9047 23.2897L78.7766 23.2714C78.7426 23.4152 78.7008 23.5538 78.6747 23.6975C78.6119 24.0452 78.5675 24.3955 78.4943 24.7432C78.2747 25.7889 78.7871 27.0202 79.9713 27.3077C80.2327 27.3705 80.4941 27.475 80.7556 27.5456C80.8284 27.5703 80.9056 27.5796 80.9823 27.573C81.0589 27.5664 81.1334 27.544 81.2009 27.5071C81.2685 27.4703 81.3277 27.4198 81.3748 27.359C81.4218 27.2981 81.4558 27.2281 81.4745 27.1535V27.1639Z" fill="#2D2928"/>
<path d="M114.537 15.8672C114.744 15.8672 114.95 15.8672 115.157 15.8672C116.257 15.9221 117.371 15.8959 118.453 16.0633C119.661 16.2489 120.359 17.2187 120.49 18.5886C120.536 19.1505 120.408 19.713 120.123 20.1993C119.837 20.6855 119.408 21.0716 118.895 21.3047C118.684 21.4166 118.453 21.4867 118.215 21.5112C117.021 21.5321 115.823 21.5112 114.555 21.5112C115.491 21.5112 115.358 20.8681 115.355 20.3061C115.355 19.2378 115.346 18.1677 115.327 17.0959C115.324 16.2149 115.306 16.1992 114.537 15.8672ZM116.155 21.1844C117.724 21.5086 118.798 21.1269 119.224 20.0394C119.414 19.4971 119.488 18.9208 119.441 18.348C119.418 18.0036 119.318 17.6686 119.15 17.3673C118.981 17.066 118.748 16.8059 118.466 16.6058C118.185 16.4057 117.862 16.2706 117.523 16.2102C117.183 16.1498 116.833 16.1657 116.5 16.2567C116.364 16.2907 116.174 16.4815 116.171 16.6018C116.147 18.1206 116.155 19.6473 116.155 21.1844Z" fill="#2D2928"/>
<path d="M99.2344 15.9735C100.343 15.9735 101.443 15.9159 102.533 15.9944C102.86 16.0252 103.166 16.1712 103.395 16.4063C103.625 16.6413 103.763 16.9503 103.786 17.2779C103.838 17.887 103.503 18.3733 102.821 18.6765C102.701 18.7314 102.575 18.7811 102.356 18.8752C103.25 19.8058 103.621 21.1757 105.061 21.5155C104.719 21.6743 104.332 21.7089 103.967 21.6135C103.603 21.5181 103.282 21.2986 103.062 20.9927C102.635 20.4202 102.181 19.8712 101.775 19.2856C101.54 18.9458 101.273 18.8726 100.832 19.0242C100.838 19.7084 100.881 20.3917 100.962 21.0711C100.994 21.2698 101.365 21.4162 101.543 21.5573H99.3259C100.123 21.4789 100.058 20.8881 100.05 20.3313C100.029 19.2098 100.011 18.0909 99.9873 16.9695C99.9716 16.1826 99.9716 16.1826 99.2344 15.9735ZM100.837 18.6817C101.098 18.6817 101.302 18.7 101.498 18.6817C102.403 18.5824 102.923 17.9916 102.805 17.2074C102.706 16.5068 102.021 16.0885 101.174 16.2323C101.049 16.2532 100.853 16.41 100.847 16.5094C100.824 17.2126 100.837 17.9184 100.837 18.6817Z" fill="#2D2928"/>
<path d="M17.3928 9.09249C18.3182 10.0414 18.6999 11.3956 20.1246 11.725C19.7741 11.8937 19.3746 11.9306 18.9992 11.8288C18.6237 11.727 18.2975 11.4934 18.0803 11.1708C17.6777 10.6244 17.2411 10.1016 16.8569 9.54213C16.7789 9.38702 16.6463 9.26622 16.4846 9.203C16.3229 9.13977 16.1436 9.13858 15.9811 9.19966C15.9514 9.8968 15.9619 10.5951 16.0125 11.291C16.036 11.4871 16.4438 11.6361 16.653 11.7903H14.376C15.2779 11.7041 15.0975 11.0244 15.0975 10.4597C15.0975 9.41403 15.0975 8.35529 15.074 7.30178C15.074 6.41819 15.0478 6.4025 14.3812 6.18552C15.3798 6.18552 16.4726 6.1254 17.5679 6.20644C17.8869 6.22468 18.189 6.35601 18.4199 6.57688C18.6508 6.79774 18.7955 7.09368 18.8279 7.41157C18.8907 8.14093 18.5796 8.60363 17.8084 8.92256C17.7143 8.97223 17.6254 9.0036 17.3928 9.09249ZM15.887 7.639H15.9079C15.9079 7.96055 15.8922 8.28471 15.9079 8.60364C15.9079 8.70559 16.0255 8.86506 16.1066 8.88597C16.9588 8.99054 18.0594 8.52259 17.8346 7.35667C17.7091 6.69789 17.0869 6.32407 16.2661 6.42602C15.5733 6.5149 15.9785 7.05343 15.8844 7.38543C15.8748 7.46974 15.8756 7.55491 15.887 7.639Z" fill="#2D2928"/>
<path d="M49.2356 11.821C48.7598 11.821 48.2788 11.8419 47.8056 11.821C47.6906 11.821 47.5704 11.6459 47.4815 11.5282C46.9848 10.8825 46.4855 10.2394 46.0123 9.57805C45.9246 9.41562 45.7824 9.28933 45.6107 9.22143C45.439 9.15353 45.2489 9.14837 45.0738 9.20684C45.0403 9.85595 45.0499 10.5066 45.1026 11.1544C45.1365 11.4158 45.4947 11.6171 45.6672 11.8053H43.4844C43.7301 11.6642 44.0307 11.591 44.1405 11.4054C44.2357 11.1556 44.2689 10.8865 44.2373 10.6211C44.2373 9.50224 44.2303 8.38251 44.2163 7.26189C44.2163 6.45672 44.1824 6.43058 43.5497 6.21622C44.5588 6.21622 45.6541 6.1561 46.739 6.23975C47.057 6.26899 47.3549 6.40776 47.5819 6.63234C47.8089 6.85693 47.9508 7.15338 47.9834 7.47102C48.0409 8.1481 47.722 8.62126 46.9665 8.94019C46.8619 8.98725 46.7547 9.0317 46.5534 9.11535C47.4422 10.0408 47.8291 11.3845 49.2356 11.821ZM45.032 8.94543C45.376 8.93028 45.7185 8.89009 46.0567 8.82517C46.2244 8.79148 46.3829 8.72219 46.5215 8.62196C46.6601 8.52172 46.7756 8.3929 46.8601 8.24419C46.9446 8.09548 46.9962 7.93037 47.0114 7.76C47.0266 7.58963 47.005 7.41797 46.9482 7.25666C46.8241 6.92879 46.5762 6.66281 46.2578 6.51609C45.9395 6.36938 45.5762 6.35369 45.2463 6.4724C45.1883 6.50997 45.1397 6.56043 45.1044 6.61982C45.069 6.67921 45.0478 6.74595 45.0424 6.81486C45.0241 7.47625 45.032 8.16117 45.032 8.94543Z" fill="#2D2928"/>
<path d="M109.66 21.7286C107.968 21.7286 106.758 20.4843 106.75 18.7301C106.739 18.3434 106.806 17.9583 106.946 17.5978C107.087 17.2372 107.298 16.9086 107.568 16.6314C107.838 16.3541 108.161 16.134 108.517 15.9839C108.874 15.8338 109.257 15.757 109.644 15.7578C110.031 15.7585 110.415 15.8361 110.772 15.9862C111.129 16.1363 111.453 16.3559 111.724 16.6323C111.996 16.9086 112.209 17.2361 112.353 17.5958C112.497 17.9555 112.568 18.3402 112.562 18.7275C112.569 20.4712 111.351 21.7286 109.66 21.7286ZM111.589 18.7537C111.563 18.5289 111.545 18.1367 111.474 17.7577C111.275 16.6989 110.575 16.0663 109.623 16.0532C108.672 16.0402 108.036 16.6493 107.835 17.7368C107.642 18.6226 107.723 19.5464 108.068 20.3849C108.175 20.6497 108.347 20.8838 108.566 21.0668C108.786 21.2497 109.047 21.3758 109.327 21.4339C109.606 21.4921 109.896 21.4804 110.17 21.4001C110.445 21.3197 110.695 21.1731 110.899 20.9731C111.503 20.4163 111.563 19.666 111.589 18.7537Z" fill="#2D2928"/>
<path d="M51.3475 21.7215L47.3739 17.1074V18.0773C47.3739 18.8929 47.3739 19.7059 47.3739 20.5215C47.3739 21.2849 47.4367 21.3581 48.1321 21.5672H46.1479C46.2371 21.5185 46.3319 21.4808 46.4302 21.4548C46.5116 21.461 46.5934 21.4487 46.6693 21.4187C46.7452 21.3887 46.8133 21.3419 46.8685 21.2817C46.9236 21.2215 46.9644 21.1496 46.9876 21.0713C47.0109 20.9931 47.016 20.9105 47.0027 20.83C47.0027 19.5229 47.0236 18.2158 46.9609 16.9087C46.9609 16.6473 46.621 16.3859 46.391 16.1637C46.2681 16.0513 46.0459 16.0461 45.8682 15.9912C46.391 15.701 47.353 15.8343 47.719 16.2526C48.7281 17.4237 49.7293 18.6053 50.7358 19.7739C50.8116 19.8628 50.8979 19.9438 51.0364 20.0902C51.0635 19.9494 51.0819 19.8071 51.0913 19.6641C51.0913 18.7805 51.0843 17.8969 51.0704 17.0133C51.0704 16.4905 51.0547 15.9676 50.3175 15.8997H52.1762C51.4364 15.9493 51.4338 16.4513 51.4416 16.9976C51.4599 18.3727 51.4573 19.7477 51.4625 21.1254C51.4625 21.3032 51.4625 21.4809 51.4625 21.6482L51.3475 21.7215Z" fill="#2D2928"/>
<path d="M59.357 15.9733C59.3988 16.3811 59.4537 16.9327 59.5217 17.5993C59.4361 17.5196 59.3582 17.4321 59.289 17.3379C58.7662 16.334 58.097 15.9445 57.0879 16.0621C56.1546 16.1719 55.4802 16.815 55.258 17.8633C55.0618 18.7167 55.1914 19.6127 55.6213 20.3755C55.8886 20.8449 56.3198 21.199 56.8323 21.3698C57.3447 21.5406 57.9021 21.5161 58.3976 21.301C58.4781 21.2553 58.5475 21.1921 58.6004 21.1161C58.6533 21.0401 58.6885 20.9532 58.7035 20.8618C58.7348 20.3729 58.7035 19.8788 58.7035 19.3848C58.7135 19.282 58.7025 19.1783 58.671 19.08C58.6396 18.9817 58.5884 18.8908 58.5206 18.813C58.4528 18.7352 58.3698 18.672 58.2767 18.6274C58.1837 18.5827 58.0825 18.5576 57.9793 18.5535H60.1413C59.6184 18.6737 59.5609 19.0763 59.5609 19.5155C59.5609 19.9547 59.5609 20.3677 59.5923 20.7886C59.6204 20.9286 59.5942 21.0741 59.5189 21.1955C59.4437 21.3169 59.325 21.4051 59.1871 21.4421C57.6708 22.0774 55.7886 21.7637 54.8894 20.7049C54.5152 20.3041 54.2708 19.7997 54.1883 19.2576C54.1057 18.7156 54.1888 18.1613 54.4267 17.6672C54.9181 16.5353 55.7834 15.8373 57.0408 15.7903C57.5637 15.772 58.0996 15.968 58.6329 16.0517C58.8761 16.0476 59.1185 16.0214 59.357 15.9733Z" fill="#2D2928"/>
<path d="M92.8871 21.5765C93.5433 21.3752 93.6295 21.2863 93.6243 20.5962C93.6243 19.3727 93.5772 18.1493 93.5772 16.9363C93.5772 16.3873 93.4413 15.9978 92.793 15.9482C92.8763 15.9133 92.9645 15.8913 93.0544 15.8828C93.938 15.9037 94.8216 15.8985 95.6999 15.9665C96.6567 16.0396 97.3077 16.7507 97.2684 17.5768C97.2345 18.4604 96.5469 19.0564 95.5326 19.0617C95.198 19.0617 94.8634 19.0224 94.5236 19.0015C94.4946 19.7091 94.5051 20.4178 94.5549 21.1242C94.5732 21.302 94.9863 21.4379 95.2085 21.5869L92.8871 21.5765ZM94.4111 17.4722H94.4268C94.4076 17.7753 94.412 18.0795 94.4399 18.382C94.4587 18.4616 94.4959 18.5358 94.5486 18.5984C94.6012 18.6611 94.6679 18.7105 94.7432 18.7427C94.9617 18.8156 95.197 18.8222 95.4193 18.7617C95.6417 18.7012 95.8412 18.5764 95.9927 18.4029C96.1574 18.2076 96.2613 17.9683 96.2915 17.7147C96.3217 17.461 96.2769 17.204 96.1627 16.9755C96.0792 16.752 95.9292 16.5595 95.7328 16.4239C95.5365 16.2883 95.3033 16.2163 95.0647 16.2174C94.4896 16.1887 94.4085 16.2697 94.4111 16.8631V17.4722Z" fill="#2D2928"/>
<path d="M40.5333 8.04907V9.879C40.0811 8.5144 39.0563 9.16794 38.2198 8.94835C38.2198 9.76398 38.2015 10.5012 38.2381 11.2358C38.2381 11.3456 38.4786 11.4972 38.6302 11.5364C38.8145 11.5636 39.0013 11.5697 39.187 11.5547C40.1307 11.6044 41.0169 11.5547 41.3986 10.3992L41.5581 10.5325C41.4143 10.9351 41.2784 11.3429 41.1137 11.7377C41.0901 11.7978 40.9437 11.8344 40.8522 11.8344C39.458 11.8344 38.0638 11.8344 36.6696 11.8344C36.6486 11.8344 36.6303 11.7952 36.6094 11.7743C37.3492 11.5129 37.3492 11.5129 37.3414 10.6685C37.3414 9.48165 37.3074 8.29219 37.3231 7.10536C37.3231 6.58252 37.1898 6.23744 36.5938 6.16424C36.7094 6.14087 36.8264 6.12515 36.9441 6.11719C38.1309 6.11719 39.3203 6.13287 40.5098 6.11719C40.9307 6.11719 41.098 6.24006 41.0666 6.65833C41.064 6.88378 41.0772 7.10915 41.1058 7.33279C40.8444 7.01124 40.6693 6.66093 40.3948 6.52238C40.1203 6.38383 39.7334 6.44658 39.3962 6.43613C39.0093 6.43613 38.6119 6.43613 38.1936 6.43613V8.68432C38.7267 8.72454 39.2623 8.71492 39.7935 8.65556C40.0758 8.61112 40.2928 8.26082 40.5333 8.04907Z" fill="#2D2928"/>
<path d="M122.206 15.9062H124.82C123.981 16.233 123.971 16.233 123.986 17.1245C124.005 18.1231 124.015 19.1269 124.088 20.1229C124.151 20.9438 124.64 21.349 125.471 21.3777C126.48 21.4143 127.238 20.9987 127.301 20.2275C127.384 19.0285 127.399 17.8258 127.346 16.6252C127.346 16.3637 126.959 16.118 126.783 15.9062H128.59C128.313 16.0553 128.01 16.1258 127.892 16.3141C127.791 16.5625 127.752 16.8315 127.777 17.0983C127.743 18.144 127.764 19.1897 127.685 20.2353C127.625 21.0823 127.024 21.5424 126.248 21.6601C125.727 21.7405 125.197 21.7344 124.679 21.6418C123.777 21.4849 123.265 20.8575 123.223 19.9373C123.181 19.0171 123.16 18.0394 123.139 17.0878C123.113 16.2069 123.118 16.2069 122.206 15.9062Z" fill="#2D2928"/>
<path d="M145.16 21.5709V19.8952L145.231 19.8716C145.285 20.0154 145.343 20.1592 145.393 20.303C145.542 20.7214 145.847 21.0658 146.245 21.2637C146.643 21.4616 147.102 21.4977 147.526 21.3643C148.253 21.1317 148.459 20.3919 147.923 19.8455C147.71 19.653 147.473 19.4888 147.217 19.3566C146.796 19.0952 146.355 18.8861 145.939 18.6247C145.131 18.1018 144.854 17.4378 145.142 16.7529C145.311 16.3871 145.601 16.0913 145.964 15.9158C146.327 15.7404 146.739 15.6962 147.131 15.7909C147.302 15.8516 147.477 15.9031 147.654 15.9451C147.936 15.9713 148.221 15.9451 148.535 15.9451V17.6627L148.464 17.6836C148.404 17.5084 148.349 17.3307 148.284 17.1607C147.994 16.4079 147.262 15.9373 146.517 16.1386C146.355 16.1858 146.205 16.2676 146.078 16.3781C145.951 16.4887 145.849 16.6254 145.78 16.7791C145.763 16.9374 145.785 17.0973 145.844 17.2452C145.903 17.3931 145.996 17.5247 146.117 17.6287C146.657 18.0079 147.224 18.3469 147.813 18.643C148.768 19.1658 149.157 19.8193 148.943 20.5775C148.728 21.3356 148.004 21.7643 147 21.7199C146.616 21.7016 146.242 21.5552 145.858 21.5081C145.624 21.5059 145.39 21.5269 145.16 21.5709Z" fill="#2D2928"/>
<path d="M26.7435 10.4621C26.605 10.8751 26.4821 11.2463 26.3488 11.6019C26.3217 11.6571 26.282 11.7053 26.233 11.7425C26.184 11.7797 26.1269 11.805 26.0664 11.8162C24.6495 11.8162 23.2327 11.8162 21.7347 11.8162C22.038 11.6385 22.3412 11.5548 22.451 11.3744C22.5417 11.1236 22.5722 10.8549 22.5399 10.5902C22.5399 9.4347 22.5286 8.2801 22.5059 7.12638C22.5059 6.38133 22.4537 6.34213 21.7217 6.13299C21.855 6.11731 21.9831 6.08855 22.1242 6.08594H25.5384C26.239 6.08594 26.239 6.08593 26.2756 6.76038C26.2756 6.92769 26.2756 7.09501 26.2756 7.2597C26.2259 7.2597 26.171 7.2597 26.1684 7.2597C25.9854 6.47545 25.4416 6.33428 24.741 6.38918C24.2914 6.42577 23.8339 6.38918 23.3503 6.38918V8.6792C23.9112 8.72104 24.4747 8.71142 25.0338 8.65045C25.2952 8.59817 25.5148 8.2348 25.7266 8.03351V9.73794C25.541 8.92493 24.9136 8.95369 24.3149 8.97461C23.2457 8.9929 23.3346 8.77332 23.3634 9.94186C23.3634 10.3 23.4052 10.6555 23.3921 11.011C23.3921 11.4241 23.5934 11.547 23.9594 11.5339C24.2208 11.5339 24.4823 11.5208 24.7228 11.5339C25.507 11.5836 26.1605 11.3457 26.5239 10.5797C26.5497 10.5364 26.5834 10.4983 26.6233 10.4673C26.6631 10.4619 26.7034 10.4602 26.7435 10.4621Z" fill="#2D2928"/>
<path d="M36.9835 21.877C36.5103 20.8574 36.1025 19.9869 35.6973 19.1138C35.3548 18.3739 34.9993 17.642 34.683 16.8917C34.4921 16.4421 34.2516 16.0839 33.7393 15.9297H36.0763C35.3418 16.3323 35.3287 16.348 35.6711 17.1035C36.16 18.1805 36.6593 19.2523 37.2187 20.4601C37.3677 20.1124 37.4645 19.8902 37.5586 19.6758C37.9219 18.8001 38.2958 17.9269 38.6408 17.0433C38.9023 16.3584 38.8631 16.2904 38.2147 15.9428H39.9166C39.3467 16.1911 39.1741 16.7139 38.965 17.2132C38.4003 18.5744 37.8322 19.9355 37.2606 21.2966C37.1978 21.4378 37.122 21.5815 36.9835 21.877Z" fill="#2D2928"/>
<path d="M135.712 20.2571C135.28 21.3655 134.339 21.8256 132.949 21.7132C132.385 21.6534 131.854 21.4201 131.43 21.0454C131.005 20.6707 130.707 20.1733 130.577 19.6219C130.287 18.3801 130.577 17.2691 131.553 16.443C131.972 16.0638 132.497 15.8218 133.058 15.7494C133.618 15.677 134.188 15.7776 134.69 16.0378C135.05 16.2051 135.257 16.1006 135.518 15.8078C135.571 16.3986 135.62 16.992 135.672 17.5828L135.597 17.6089C135.445 17.3237 135.277 17.0471 135.095 16.7802C134.889 16.5146 134.618 16.3067 134.308 16.1765C133.998 16.0464 133.66 15.9985 133.326 16.0374C132.992 16.0763 132.674 16.2007 132.402 16.3986C132.13 16.5966 131.914 16.8613 131.775 17.1671C131.434 17.99 131.372 18.9015 131.597 19.763C131.664 20.1435 131.845 20.4945 132.117 20.7688C132.389 21.0431 132.739 21.2276 133.118 21.2976C133.942 21.4779 134.71 21.3524 135.317 20.6937C135.456 20.5604 135.581 20.4061 135.712 20.2571Z" fill="#2D2928"/>
<path d="M0.0130837 6.10156C1.33586 6.10156 2.65865 6.10156 3.97881 6.11463C4.09383 6.11463 4.27944 6.31069 4.30297 6.43879C4.33897 6.73024 4.33101 7.02545 4.27941 7.31455C3.73828 5.88982 2.56452 6.57734 1.60511 6.37867V8.61379C2.65078 8.89089 3.10829 8.73666 3.55531 7.86875V9.72481C3.239 8.58503 2.31094 9.20198 1.59988 9.0033C1.56495 9.72741 1.5763 10.453 1.63386 11.1757C1.66523 11.4188 2.0652 11.6149 2.25342 11.7926H0C0.243119 11.6515 0.564686 11.573 0.677096 11.377C0.772043 11.1054 0.801588 10.8152 0.763353 10.53C0.763353 9.4085 0.72676 8.28962 0.737217 7.16814C0.742446 6.62962 0.632645 6.22966 0.0130837 6.10156Z" fill="#2D2928"/>
<path d="M32.003 10.7154C32.5415 9.35082 33.0486 8.10124 33.5061 6.82813C33.5636 6.66606 33.2447 6.36803 33.0983 6.14844H34.523C34.2329 6.55895 33.9708 6.98868 33.7388 7.43463C33.1297 8.81491 32.5676 10.2161 31.982 11.6173C31.9324 11.735 31.8592 11.8448 31.7389 12.0591C31.603 11.7846 31.5036 11.599 31.4148 11.4082C30.7638 9.99128 30.1077 8.57441 29.4672 7.15229C29.2659 6.70788 29.0515 6.30007 28.5156 6.15367H30.7508C30.5835 6.32359 30.3064 6.47783 30.275 6.67651C30.2768 6.94602 30.3499 7.21026 30.4867 7.44246C30.9573 8.47768 31.4409 9.52074 32.003 10.7154Z" fill="#2D2928"/>
<path d="M142.75 17.1899C142.206 16.0292 141.77 16.2017 140.75 16.2671C140.75 16.4056 140.716 16.552 140.716 16.6958C140.716 17.9681 140.716 19.242 140.716 20.5178C140.716 21.2706 140.781 21.3438 141.472 21.5791H139.189C140.123 21.4928 139.903 20.7949 139.906 20.2145C139.906 19.0956 139.906 17.9741 139.887 16.8527C139.887 16.6697 139.869 16.4841 139.861 16.3141C138.797 16.0292 138.293 16.2566 137.817 17.1324C137.843 16.7559 137.859 16.3795 137.908 16.0083C137.908 15.9534 138.099 15.8828 138.204 15.8828C139.595 15.8828 140.988 15.8828 142.386 15.8828C142.46 15.8944 142.53 15.9244 142.589 15.9701C142.648 16.0158 142.694 16.0757 142.724 16.1442C142.755 16.4918 142.764 16.8411 142.75 17.1899Z" fill="#2D2928"/>
<path d="M22.6392 21.6181C23.3424 21.3567 23.3711 21.3201 23.3685 20.5725C23.3685 19.3673 23.3685 18.1622 23.3476 16.9571C23.3476 16.2303 23.2901 16.1728 22.5947 15.9297H25.1618C24.1606 16.2669 24.1606 16.2669 24.1606 17.3126C24.1606 18.4001 24.1754 19.4867 24.2051 20.5725C24.2051 21.179 24.3096 21.26 24.9344 21.2678H25.1383C26.1474 21.3306 27.1042 21.2678 27.4911 20.0339L27.593 20.1385C27.4623 20.562 27.3473 20.9907 27.1957 21.4064C27.1666 21.4615 27.125 21.5089 27.0741 21.5448C27.0232 21.5807 26.9645 21.604 26.9029 21.6129C25.4677 21.6208 24.0587 21.6181 22.6392 21.6181Z" fill="#2D2928"/>
<path d="M31.9225 21.5843H29.5698L29.5515 21.519C29.6482 21.4928 29.7684 21.498 29.8338 21.4405C30.0011 21.2863 30.2756 21.1059 30.2782 20.9177C30.3044 19.4773 30.2782 18.0421 30.2782 16.5912C30.2782 16.0998 29.8835 16.0422 29.541 15.8906H32.0428C31.1357 16.1782 31.1252 16.1834 31.133 17.0356C31.133 18.2068 31.1566 19.3884 31.1696 20.5491C31.1696 21.2915 31.2193 21.3569 31.9225 21.5843Z" fill="#2D2928"/>
<path d="M41.8797 21.5659C42.6064 21.3489 42.6325 21.3176 42.6325 20.5359C42.6325 19.3465 42.6326 18.157 42.6143 16.9675C42.6143 16.2225 42.5515 16.1702 41.8535 15.9219H44.2429C43.4429 16.2199 43.4351 16.2251 43.4429 17.0904C43.4429 18.2459 43.4743 19.4013 43.4874 20.5568C43.4874 21.3097 43.5187 21.3411 44.235 21.5607L41.8797 21.5659Z" fill="#2D2928"/>
<path d="M9.43814 11.9396C7.74677 11.9396 6.5364 10.6926 6.52856 8.94109C6.51734 8.5541 6.58402 8.16881 6.72465 7.80811C6.86528 7.4474 7.07698 7.11865 7.34718 6.84138C7.61738 6.56411 7.94055 6.34398 8.2975 6.19407C8.65445 6.04417 9.03791 5.96755 9.42506 5.96876C9.81343 5.96939 10.1978 6.04736 10.5557 6.1981C10.9136 6.34883 11.238 6.56934 11.5098 6.84674C11.7816 7.12415 11.9955 7.45291 12.1389 7.81383C12.2823 8.17476 12.3524 8.56063 12.3451 8.94894C12.3503 10.6821 11.1321 11.9396 9.43814 11.9396ZM11.37 8.96462C11.3439 8.7398 11.323 8.34767 11.2524 7.966C11.0537 6.92033 10.3531 6.27724 9.40154 6.26417C8.44998 6.2511 7.81471 6.8602 7.61342 7.9477C7.41997 8.83355 7.50113 9.75732 7.84608 10.5959C7.95341 10.8608 8.12434 11.0952 8.34374 11.2785C8.56314 11.4617 8.82428 11.5881 9.10409 11.6465C9.38391 11.7048 9.67378 11.6935 9.94815 11.6133C10.2225 11.5331 10.4729 11.3866 10.6773 11.1867C11.2838 10.6272 11.3517 9.88481 11.37 8.96462Z" fill="#2D2928"/>
</svg>
