<svg width="26" height="16" viewBox="0 0 26 16" fill="none" xmlns="http://www.w3.org/2000/svg">
<g clip-path="url(#clip0_26472_309421)">
<path d="M3.5498 6.54688L3.61479 6.62688C3.61619 6.61729 3.61559 6.60752 3.61302 6.59818C3.61045 6.58883 3.60598 6.58013 3.59987 6.57261C3.59376 6.56509 3.58615 6.55892 3.57753 6.55449C3.56891 6.55006 3.55948 6.54747 3.5498 6.54688Z" fill="#454140"/>
<path d="M2.78507 9.06688C3.63007 9.16688 3.85506 9.56688 4.73006 9.39188C5.15551 9.39608 5.58051 9.36262 6.00006 9.29188C6.19006 8.99188 6.53506 9.29188 6.76506 9.03688L6.85005 9.20688C6.93005 9.12188 7.02505 9.06188 7.10005 9.15188V9.20187C7.22005 9.07687 7.35507 9.15188 7.41007 9.08688V9.13688H7.55506L7.53006 9.20187C7.61832 9.14373 7.7186 9.10633 7.82338 9.09248C7.92816 9.07862 8.03472 9.08867 8.13506 9.12188V8.91688C8.53506 9.14688 8.68006 8.72687 9.04006 8.99187V9.04188C9.49506 8.50688 9.76006 9.40688 10.2301 8.90188C10.1701 8.96188 10.2301 9.00688 10.2301 9.05188C10.4451 8.99688 10.6751 8.96688 10.6801 8.55188C10.8351 8.55188 10.8051 8.67688 10.8301 8.83188C10.8294 8.79797 10.8355 8.76427 10.848 8.73276C10.8605 8.70124 10.8792 8.67253 10.903 8.64832C10.9267 8.62411 10.955 8.60488 10.9863 8.59175C11.0176 8.57862 11.0511 8.57187 11.0851 8.57188L11.0301 8.64188L11.3801 8.58188L11.3151 8.25188C11.5001 8.34688 11.3601 8.65188 11.5401 8.57188V8.29687C11.8001 8.35187 11.9501 8.76688 12.2001 8.96688C13.2401 9.08688 14.3601 8.38688 15.3251 8.87188L15.3701 9.07687C15.3701 9.37687 15.6351 8.63187 15.6751 8.90687L15.7851 8.77187C15.8201 8.82687 15.8851 8.88187 15.8301 8.95187C15.9301 8.95187 15.9351 8.91188 16.0101 8.82188L16.1201 9.00687C16.5301 9.15187 16.8801 8.79187 17.3151 8.86687C17.8151 9.24687 18.8151 8.89688 19.3701 8.69188C20.1651 8.24688 21.0851 9.44188 21.8951 8.92688C21.9201 8.97188 21.9901 8.87188 21.9901 8.84188L22.7301 8.88187C22.7301 8.88187 26.3251 8.99688 23.5951 6.51188V6.44688C23.1901 6.28688 22.9351 6.25188 22.6551 6.58188C22.6101 6.17688 22.3201 6.53688 22.2251 6.40688V6.37688C21.9801 6.68688 21.7251 6.11688 21.4751 6.37688C21.4751 6.34188 21.4751 6.23188 21.5451 6.22688C21.3751 6.27688 21.1351 6.36687 21.1201 6.13187C20.7051 6.19187 20.1201 6.08688 19.8601 6.46188V6.39687C19.7101 6.64687 19.6651 6.43187 19.4951 6.56187C19.4935 6.5419 19.4935 6.52185 19.4951 6.50188C19.3301 6.75188 18.9951 6.54187 18.8801 6.64687V6.49187L18.5501 6.52688L18.6751 6.56187C18.6301 6.98687 18.4251 6.29187 18.1751 6.56187C17.9551 6.50687 17.7251 7.45187 17.4951 7.24187C17.3801 7.44187 17.5901 6.91188 17.4251 7.06688C17.4251 6.84688 17.5001 6.92688 17.4601 6.75188C17.2951 6.85688 17.1951 6.52187 16.9951 6.67187V6.49688C16.7351 6.81688 16.4951 6.27188 16.3301 6.57188C16.0601 6.71688 16.1501 6.07187 15.8701 6.39687L15.7601 6.16188C15.6401 6.12188 15.6751 6.45188 15.5401 6.33688C15.5401 6.18688 15.3701 6.21687 15.4501 6.07687C15.1501 5.84687 14.8401 6.40688 14.4501 6.01188C14.3651 6.30188 14.1651 6.13188 14.1001 6.34688C14.1001 6.22188 13.7001 6.34688 13.9251 6.05188C13.9251 6.05188 13.9801 6.05188 13.9751 6.08688L14.0051 5.91188C13.7751 5.59188 13.5951 6.09188 13.3701 6.04188C13.4351 6.09688 13.5251 6.08187 13.4651 6.20187L13.2551 6.17688L13.3001 6.03188L12.9901 5.95187L13.0351 6.12688C12.8801 6.03688 12.8301 5.73188 12.6551 5.98688C12.5801 6.12688 12.8001 6.22688 12.6551 6.28188C12.4204 6.12398 12.1622 6.00418 11.8901 5.92688C11.9151 6.12688 11.8451 6.11688 11.7751 6.15688V5.98688C11.5001 6.22688 11.6751 5.60188 11.4001 5.79188L11.4251 5.67188L11.3551 6.03688C11.1101 6.38188 11.2201 5.67687 10.9501 6.14687C11.0551 6.11687 11.0001 6.53188 10.8651 6.45688L10.9001 6.28688C10.8251 6.32188 10.8001 6.39188 10.7551 6.35688C10.7951 6.26688 10.7551 6.11188 10.6701 6.14188L10.7401 5.93188L10.5351 6.24187C10.3801 6.06187 10.1301 6.28688 10.0651 6.05188C10.0651 6.05188 9.72505 5.93188 9.64505 6.19188C9.71505 6.03188 9.52507 5.97188 9.58007 5.78188C9.49007 5.96188 9.23505 6.11188 9.13005 5.91688C8.74505 5.71688 8.47005 6.18688 8.13005 5.94688C8.13005 6.15188 7.96506 6.03687 8.01006 6.29687C7.65006 6.55187 7.36006 5.77188 7.23006 6.57188C7.06506 6.61188 7.03506 6.38188 6.95006 6.34188L6.99005 6.30188C6.78828 6.3568 6.57835 6.37542 6.37006 6.35688C6.26006 6.43188 6.24006 6.80188 6.04006 6.71688C6.10506 6.56688 6.04006 6.59688 5.94506 6.59688C5.99506 6.57188 6.01007 6.51688 5.91007 6.41688C5.89808 6.45333 5.87942 6.48723 5.85506 6.51688C5.85506 6.51688 5.85506 6.51688 5.85506 6.47688C5.73006 6.53188 5.75006 6.57688 5.81006 6.59688C5.80484 6.62833 5.80484 6.66043 5.81006 6.69188C5.68006 6.49688 5.44506 6.69188 5.43006 6.44688C5.09735 6.56 4.77458 6.70048 4.46506 6.86687C4.44844 6.81027 4.45236 6.74961 4.47615 6.69563C4.49994 6.64164 4.54207 6.5978 4.59506 6.57188L4.37006 6.61687C4.37006 6.43187 4.50007 6.51188 4.56507 6.47188C4.30007 6.17188 4.01506 6.77688 3.70506 6.47188L3.64006 6.62188V6.59688C3.63634 6.6379 3.6242 6.67771 3.60442 6.71384C3.58463 6.74997 3.55762 6.78164 3.52506 6.80688C3.48006 6.64188 3.52506 6.43188 3.37006 6.44188C3.25006 6.28188 3.02506 6.52188 2.87006 6.60688C2.95506 6.63688 2.93006 6.72688 2.87006 6.78188C2.81006 6.83688 2.75007 6.62688 2.69007 6.69688V6.47688C2.72007 6.68188 2.49005 6.70188 2.46005 6.79188C2.41505 6.62688 2.58005 6.64688 2.60005 6.52688L2.13506 6.55688C1.97006 6.72188 2.16505 6.76688 2.08505 6.95688C1.94005 7.00188 1.79506 7.15687 1.62506 7.02187L1.68006 7.21688C1.63527 7.25527 1.58307 7.28403 1.52669 7.30138C1.47031 7.31874 1.41096 7.32431 1.35234 7.31774C1.29372 7.31118 1.23707 7.29262 1.18593 7.26322C1.13479 7.23383 1.09024 7.19422 1.05505 7.14687C-0.989946 8.74187 0.625062 9.32687 0.625062 9.32687C1.41006 9.79187 1.84007 9.22188 2.78507 9.06688Z" fill="#454140"/>
<path d="M18.7549 1.19531V1.29531C18.7662 1.28112 18.7724 1.26348 18.7724 1.24531C18.7724 1.22713 18.7662 1.2095 18.7549 1.19531Z" fill="#454140"/>
<path d="M16.4696 2.45648C16.9246 3.07148 16.7896 3.45648 17.4696 3.93148C17.7306 4.20992 18.0206 4.45968 18.3346 4.67648C18.6646 4.59648 18.6696 5.01647 18.9946 4.99147L18.9296 5.16648C19.0396 5.16648 19.1346 5.16648 19.1196 5.29148L19.0846 5.32148C19.2496 5.32148 19.2746 5.44648 19.3596 5.44148L19.3196 5.47148L19.4246 5.55148L19.3596 5.58148C19.4543 5.59479 19.5439 5.63211 19.6201 5.68987C19.6962 5.74763 19.7563 5.82393 19.7946 5.91148L19.9296 5.76148C20.0196 6.17648 20.4296 5.97647 20.4296 6.39647L20.3896 6.42648C21.0596 6.34648 20.5796 7.14648 21.2346 7.09148C21.1546 7.09148 21.1746 7.18148 21.1396 7.21147C21.2146 7.25147 21.3346 7.34148 21.3896 7.30648C21.5029 7.2497 21.6087 7.17917 21.7046 7.09648C21.7496 7.15148 21.6446 7.21148 21.5196 7.30648C21.6646 7.20148 21.7646 7.20148 21.8096 7.23648H21.7346L21.8896 7.31648C21.9946 7.26648 22.0996 7.21147 22.1946 7.15647C22.1946 7.27147 21.8096 7.33148 21.9446 7.36148L22.2346 7.26648C22.2846 7.39148 21.8546 7.54648 21.6346 7.60648C21.6346 7.63148 21.6346 7.64648 21.6746 7.66648C21.7146 7.68648 21.7046 7.85647 21.6746 8.01647C21.6504 8.10718 21.5979 8.18778 21.5246 8.24648C21.3712 8.38785 21.1886 8.49369 20.9896 8.55648L20.8146 8.44148C20.5846 8.24648 20.9696 8.94147 20.7446 8.75647L20.7746 8.92147C20.7196 8.92147 20.6346 8.92147 20.6196 8.82647C20.5496 8.88647 20.5796 8.92147 20.6196 9.03147L20.4146 8.97647C20.0596 9.14147 20.0996 9.61648 19.7796 9.84648C19.1846 9.91648 18.8296 10.7915 18.6246 11.2965C18.4596 12.1165 17.0246 11.8865 16.8946 12.7665C16.8446 12.7665 16.8946 12.8615 16.8946 12.8865L16.3946 13.3365C16.3946 13.3365 14.0796 15.5815 17.5696 15.5365L17.6046 15.5915C17.9696 15.4415 18.1546 15.3015 18.1046 14.8915C18.4246 15.1415 18.3396 14.7065 18.4946 14.7315V14.7615C18.4246 14.3865 18.9946 14.6115 18.9446 14.2615C18.9446 14.2865 19.0346 14.3665 19.0096 14.4065C19.0796 14.2615 19.1596 14.0465 19.3396 14.1965C19.5546 13.8865 19.9896 13.5865 19.8846 13.1565L19.9196 13.2115C19.8346 12.9415 20.0146 13.0615 20.0296 12.8615L20.0846 12.8915C20.0046 12.6115 20.3546 12.5515 20.3596 12.3915L20.4796 12.4965L20.6546 12.2565L20.5546 12.3115C20.2746 11.9865 20.9046 12.3115 20.8496 11.9915C21.0296 11.8865 20.4896 11.0815 20.7846 11.0765C20.7096 10.8665 20.9596 11.3665 20.9496 11.1515C21.1146 11.3015 21.0046 11.3015 21.1596 11.3965C21.1596 11.2165 21.4896 11.3965 21.5046 11.1465L21.6346 11.2615C21.5696 10.8715 22.1046 11.1015 21.9946 10.7615C22.0596 10.4865 22.4946 11.0015 22.4096 10.5865L22.6446 10.6765C22.7496 10.6265 22.4896 10.4215 22.6446 10.4165C22.7496 10.5215 22.8346 10.3865 22.8896 10.5365C23.0646 10.5365 23.0996 10.3615 23.1596 10.2115C23.1816 10.1355 23.2229 10.0666 23.2796 10.0115C23.3129 9.98193 23.3521 9.95977 23.3946 9.94648C23.47 9.90415 23.5507 9.87219 23.6346 9.85147C23.4996 9.57147 23.8496 9.45647 23.7296 9.26647C23.8496 9.32647 24.1596 8.84648 24.1846 9.22148C24.1846 9.25148 24.1396 9.29148 24.0996 9.26148L24.2246 9.37648C24.3228 9.36834 24.4155 9.32823 24.4887 9.26229C24.5618 9.19636 24.6114 9.10825 24.6296 9.01148C24.6696 8.85648 24.6596 8.70148 24.8096 8.58148C24.6746 8.64648 24.5946 8.74647 24.5296 8.64647L24.7796 8.42147L24.8946 8.50647L25.3446 8.16148H25.0746C25.3496 8.01148 25.8146 7.96147 25.6746 7.74147C25.5646 7.65147 25.1996 7.89148 25.2896 7.71648L25.4646 7.61148C25.4074 7.32497 25.2898 7.05394 25.1196 6.81648C24.9096 6.89148 24.8396 6.81647 24.7146 6.74147L24.9046 6.68647C24.3346 6.44147 25.2046 6.44647 24.6746 6.18647H24.8296C24.6746 6.18647 24.5246 6.22148 24.3746 6.24648C23.7796 6.13148 24.5546 5.91148 23.8296 5.84148C23.9696 5.94648 23.5446 6.09648 23.4846 5.92648L23.6596 5.86647C23.5546 5.80647 23.4696 5.82648 23.4496 5.75148C23.5696 5.75148 23.6696 5.63148 23.5296 5.52648L23.7746 5.47647C23.6221 5.45701 23.4684 5.447 23.3146 5.44648C23.3146 5.19648 23.0196 5.21148 23.1446 4.99648C23.1446 4.99648 23.0196 4.70148 22.7846 4.83148C22.9396 4.76148 22.8696 4.59648 23.0396 4.50148C22.8496 4.57148 22.5846 4.50148 22.6596 4.30648H22.6846C22.5896 3.92148 22.0796 4.07647 22.0346 3.68647C21.8996 3.83647 21.8646 3.64148 21.7096 3.85148C21.3046 3.80148 21.6796 3.06648 21.0246 3.54148C20.8946 3.46648 21.0246 3.28647 21.0246 3.20147H21.0746C20.9098 3.11184 20.7651 2.98932 20.6496 2.84148C20.5246 2.84148 20.2496 3.07147 20.1846 2.88147C20.3296 2.82147 20.2596 2.78648 20.2146 2.73648C20.2596 2.73648 20.3096 2.73648 20.3196 2.59148C20.2871 2.6088 20.2514 2.61903 20.2146 2.62148C20.0946 2.57648 20.0796 2.62148 20.0996 2.67148C20.0756 2.69371 20.0568 2.72105 20.0446 2.75148C20.0996 2.53148 19.8096 2.52648 19.9796 2.33648C19.6884 2.19961 19.3856 2.08917 19.0746 2.00647C19.1058 1.95887 19.1507 1.92189 19.2034 1.90045C19.2561 1.87901 19.3141 1.87414 19.3696 1.88648L19.1946 1.77648C19.3296 1.64648 19.3546 1.77648 19.4246 1.77648C19.4746 1.39148 18.8646 1.63148 18.8646 1.23648L18.7196 1.30148V1.27147C18.6897 1.29758 18.6547 1.31727 18.6169 1.32931C18.579 1.34135 18.5391 1.3455 18.4996 1.34148C18.5896 1.20148 18.7696 1.08148 18.6646 0.991475C18.7046 0.801475 18.3896 0.821479 18.2296 0.776479C18.2646 0.851479 18.1796 0.896478 18.1146 0.916478C18.0496 0.936478 18.1546 0.726478 18.0646 0.736478L18.2196 0.576474C18.0896 0.741474 17.9296 0.606474 17.8496 0.646474C17.9396 0.506474 18.0246 0.646478 18.1246 0.556478L17.8146 0.276479C17.5896 0.276479 17.6796 0.441479 17.4946 0.526479C17.3696 0.461479 17.1696 0.476479 17.1596 0.276479L17.0546 0.446477C16.7746 0.376477 16.6896 0.25648 16.7146 -0.00351964C14.2896 -0.20852 14.8796 1.23648 14.8796 1.23648C15.0896 2.07648 15.7596 1.93148 16.4696 2.45648Z" fill="#454140"/>
</g>
<defs>
<clipPath id="clip0_26472_309421">
<rect width="25.69" height="15.61" fill="white"/>
</clipPath>
</defs>
</svg>
