<svg width="138" height="33" viewBox="0 0 138 33" fill="none" xmlns="http://www.w3.org/2000/svg">
<path d="M4.05321 9.93181C6.80058 9.20913 9.82351 11.3256 10.2729 14.1345C10.4308 14.9909 10.3725 15.874 10.1034 16.7013C9.83433 17.5287 9.36316 18.2735 8.73389 18.8664C6.66064 21.2108 2.56079 20.587 0.907272 18.0576C0.237857 17.0626 -0.0762241 15.8654 0.017084 14.6644C0.110392 13.4634 0.605467 12.3309 1.42027 11.4546C2.13536 10.7008 3.04953 10.172 4.05321 9.93181Z" fill="#2D2928"/>
<path d="M91.4648 0.0078125H96.807V5.65589C98.8929 5.7032 101.047 5.63008 103.137 5.65589C103.162 7.23029 103.137 8.8262 103.137 10.3877C101.017 10.3877 98.8972 10.3877 96.8154 10.3877C96.8494 13.0246 96.8154 15.7218 96.8154 18.3544C96.8253 18.735 96.9645 19.1004 97.2095 19.3888C97.4544 19.6773 97.79 19.8711 98.1595 19.9374C99.7706 20.2987 101.551 19.8384 103.145 19.7008V24.4713C101.119 24.8702 99.0499 25.0061 96.9893 24.8757C96.108 24.8394 95.2462 24.6011 94.4686 24.1787C93.691 23.7563 93.0178 23.1607 92.4994 22.4366C91.7863 21.3722 91.4255 20.1052 91.4691 18.8189C91.4691 13.5508 91.4691 8.28132 91.4691 3.01036C91.4733 2.12422 91.4648 0.906858 91.4648 0.0078125Z" fill="#2D2928"/>
<path d="M21.1483 5.30238C23.2667 4.73769 25.5162 4.99056 27.4613 6.01211C28.8192 6.79855 29.9828 7.88811 30.8643 9.19829C31.7457 10.5085 32.3219 12.005 32.5491 13.5745C32.6537 14.8396 32.631 16.1123 32.4812 17.3728C32.2103 18.7062 31.7308 19.9872 31.0609 21.1669C29.2972 23.7479 26.2954 25.5674 23.158 25.5502C21.3094 25.5502 19.7449 24.492 18.1126 23.778C18.0151 26.5181 18.0745 29.2626 18.0829 32.007C16.2132 31.9554 14.3435 32.007 12.478 31.9726C12.3847 23.1973 12.478 14.4219 12.4229 5.64648C14.1654 5.64648 15.9079 5.64648 17.6505 5.64648C17.6886 6.07665 17.7311 6.53691 17.7777 6.97999C18.8673 6.36915 19.8976 5.61206 21.1398 5.31525L21.1483 5.30238ZM20.8007 10.7568C19.4609 11.458 18.0363 12.6152 17.9303 14.2584C17.748 15.6392 17.9049 17.1534 18.7783 18.2934C19.8764 19.7903 21.886 20.3495 23.6498 20.014C24.7564 19.8118 25.6128 18.9816 26.3208 18.1514C27.4062 16.8609 27.3808 14.951 26.9356 13.3981C26.1343 10.9074 23.0943 9.90513 20.8091 10.7655L20.8007 10.7568Z" fill="#2D2928"/>
<path d="M52.2599 6.68399C53.4143 5.8647 54.7404 5.32831 56.1338 5.11708C57.5272 4.90584 58.9499 5.02548 60.29 5.46659C61.4135 5.73329 62.2191 6.61943 63.1943 7.18725L63.2833 5.7075C64.9792 5.65158 66.6751 5.63438 68.3371 5.7075C68.3823 12.0826 68.3823 18.459 68.3371 24.8369C66.5819 24.9101 64.8308 24.8972 63.0755 24.8369C63.0204 24.2992 62.9653 23.7615 62.9144 23.2238C61.4051 24.5444 59.5226 25.5424 57.4832 25.5338C48.4144 25.4908 44.8827 11.6825 52.2641 6.66676L52.2599 6.68399ZM57.3221 10.5684C55.5329 10.8566 53.9049 12.3621 53.7438 14.2377C53.7099 15.3733 53.57 16.6122 54.1678 17.6403C55.5075 20.3718 59.6371 20.8837 61.6934 18.72C63.6818 16.724 63.419 12.9128 61.1083 11.2781C60.5603 10.8999 59.9401 10.6428 59.2878 10.5234C58.6355 10.4041 57.9658 10.4253 57.3221 10.5856V10.5684Z" fill="#2D2928"/>
<path d="M79.1102 5.21354C82.926 4.35321 87.1277 6.15991 89.3069 9.42057C87.9036 10.5261 86.4324 11.5327 85.0163 12.6167C84.1683 11.7822 83.3204 10.7412 82.0951 10.5519C80.7892 10.3583 79.3265 10.4185 78.2539 11.2875C76.134 12.7027 75.799 15.8817 77.0709 17.9723C78.4997 20.4199 82.3622 20.8587 84.2489 18.7423C84.5753 18.4153 84.8933 18.0841 85.2113 17.7529C86.5595 18.9444 88.1792 19.7402 89.5656 20.8845C88.8066 22.0975 87.6534 22.9536 86.5511 23.8139C84.6425 25.1298 82.3395 25.725 80.043 25.4958C75.0401 25.0657 70.7155 20.3037 70.919 15.1719C70.9344 13.5354 71.3329 11.926 72.0819 10.4765C72.8309 9.02702 73.9088 7.77896 75.2266 6.83527C76.418 6.06892 77.7324 5.52005 79.1102 5.21354Z" fill="#2D2928"/>
<path d="M112.888 5.14599C114.77 4.82042 116.703 5.04195 118.466 5.78493C120.228 6.52792 121.747 7.762 122.848 9.3444C124.357 11.3017 124.789 13.8999 124.641 16.3217C124.522 17.7526 124.101 19.1408 123.407 20.3922C122.713 21.6435 121.761 22.7288 120.617 23.5743C119.532 24.4346 118.167 24.8089 116.874 25.239C112.074 26.564 106.55 23.5184 105.04 18.722C104.125 15.7109 104.362 12.1964 106.13 9.5337C107.723 7.223 110.153 5.64562 112.888 5.14599ZM113.312 10.6263C111.671 11.1899 110.039 12.6051 109.98 14.4978C109.853 15.8701 109.98 17.3885 110.904 18.4854C112.681 20.5502 116.352 20.7094 118.078 18.4854C119.884 16.4034 119.507 12.7126 117.17 11.1726C116.599 10.8179 115.961 10.5863 115.297 10.4923C114.634 10.3983 113.958 10.444 113.312 10.6263Z" fill="#2D2928"/>
<path d="M42.7032 5.89608C44.0297 5.42371 45.4554 5.31387 46.837 5.57771C46.9676 7.38164 46.9776 9.19254 46.8667 10.9978C45.4124 10.9419 43.8522 10.7698 42.5082 11.428C41.9152 11.8393 41.4336 12.3952 41.1076 13.0446C40.7817 13.694 40.6218 14.4162 40.6427 15.1446C40.6003 18.3752 40.702 21.5971 40.6045 24.8276C38.828 24.9093 37.0515 24.8921 35.2793 24.8276C35.1945 19.7689 35.2793 14.7102 35.2454 9.65141C35.2454 8.3265 35.2454 7.0016 35.2836 5.681C36.9795 5.61647 38.6754 5.61217 40.3713 5.681C40.3967 6.31334 40.4179 6.94564 40.4307 7.57799C41.0719 6.87135 41.8441 6.29986 42.7032 5.89608Z" fill="#2D2928"/>
<path d="M130.696 9.93181C133.443 9.20913 136.47 11.3256 136.92 14.1345C137.075 14.9913 137.015 15.8739 136.745 16.7008C136.475 17.5278 136.005 18.2725 135.377 18.8664C133.308 21.2108 129.208 20.587 127.55 18.0576C126.88 17.0626 126.566 15.8654 126.66 14.6644C126.753 13.4634 127.248 12.3309 128.063 11.4546C128.778 10.7008 129.692 10.172 130.696 9.93181Z" fill="#2D2928"/>
</svg>
