<svg width="105" height="32" viewBox="0 0 105 32" fill="none" xmlns="http://www.w3.org/2000/svg">
<path fill-rule="evenodd" clip-rule="evenodd" d="M65.1059 24.7198C59.0069 29.2195 50.1661 31.6112 42.5525 31.6112C32.3789 31.6639 22.5523 27.9156 14.9981 21.101C14.4269 20.585 14.9391 19.8812 15.6246 20.2829C24.0191 25.0838 33.5233 27.6056 43.1937 27.598C50.418 27.5618 57.564 26.099 64.2215 23.2937C65.246 22.8551 66.1157 23.9717 65.1059 24.7198Z" fill="#2D2928"/>
<path fill-rule="evenodd" clip-rule="evenodd" d="M67.645 21.8148C66.8637 20.8161 62.4857 21.3431 60.5214 21.579C59.9281 21.649 59.8323 21.1294 60.3703 20.7535C63.8602 18.2991 69.5834 19.0104 70.2467 19.8285C70.9101 20.6466 70.0735 26.3919 66.801 29.13C66.2962 29.5501 65.8171 29.3253 66.0419 28.7615C66.7752 26.9336 68.4262 22.8172 67.645 21.8148Z" fill="#2D2928"/>
<path fill-rule="evenodd" clip-rule="evenodd" d="M60.6617 3.43074V1.0501C60.6592 0.970043 60.6731 0.890302 60.7025 0.815818C60.732 0.741334 60.7764 0.673667 60.8331 0.617027C60.8897 0.560387 60.9574 0.515991 61.0318 0.486524C61.1063 0.457058 61.1861 0.443163 61.2661 0.445722H71.9532C72.0338 0.442735 72.1141 0.456101 72.1894 0.484995C72.2646 0.513889 72.3332 0.557703 72.3911 0.613833C72.4489 0.669964 72.4948 0.737246 72.526 0.81159C72.5571 0.885933 72.5729 0.965809 72.5724 1.04641V3.08804C72.5724 3.43076 72.2812 3.88034 71.769 4.5879L66.2412 12.489C68.2938 12.4411 70.4681 12.747 72.3328 13.7936C72.5 13.8866 72.6402 14.0214 72.7397 14.1848C72.8391 14.3483 72.8945 14.5347 72.9003 14.7259V17.2687C72.9003 17.6373 72.5318 18.0058 72.1154 17.8141C70.3713 16.9129 68.4366 16.4426 66.4733 16.4426C64.5101 16.4426 62.5754 16.9129 60.8313 17.8141C60.4628 18.0131 60.0684 17.6115 60.0684 17.2614V14.8475C60.0317 14.2758 60.1664 13.7061 60.4554 13.2113L66.864 3.99827H61.2845C61.2063 4.00224 61.1281 3.99065 61.0543 3.96422C60.9806 3.93779 60.9128 3.89701 60.8549 3.84424C60.797 3.79148 60.7501 3.72781 60.717 3.65683C60.6838 3.58586 60.665 3.509 60.6617 3.43074Z" fill="#2D2928"/>
<path fill-rule="evenodd" clip-rule="evenodd" d="M21.705 18.318H18.4436C18.2968 18.3117 18.1571 18.2528 18.0502 18.1519C17.9433 18.0511 17.8762 17.9151 17.8613 17.7689V1.09702C17.8628 1.01636 17.8801 0.936784 17.9124 0.862868C17.9447 0.788953 17.9914 0.722157 18.0496 0.666326C18.1078 0.610496 18.1765 0.566754 18.2517 0.537578C18.3269 0.508402 18.4072 0.49437 18.4878 0.496326H21.5133C21.6634 0.500414 21.8067 0.559891 21.9156 0.663312C22.0245 0.766733 22.0912 0.906791 22.103 1.05649V3.23077H22.1656C22.9543 1.12651 24.4394 0.14256 26.4405 0.14256C28.4415 0.14256 29.7572 1.12651 30.6564 3.23077C30.9799 2.30621 31.5892 1.50858 32.3962 0.953379C33.2031 0.398174 34.1658 0.114202 35.1449 0.14256C35.8724 0.131284 36.5923 0.29236 37.2456 0.612614C37.899 0.932867 38.4672 1.4032 38.9039 1.98517C39.9358 3.38555 39.722 5.42345 39.722 7.21078V17.7358C39.7201 17.8161 39.7024 17.8953 39.6699 17.9688C39.6373 18.0423 39.5907 18.1086 39.5325 18.1641C39.4743 18.2195 39.4057 18.2629 39.3308 18.2919C39.2558 18.3208 39.1759 18.3347 39.0955 18.3328H35.8488C35.6937 18.3271 35.5467 18.2619 35.4383 18.1508C35.3298 18.0396 35.2684 17.891 35.2666 17.7358V8.89126C35.2666 8.19106 35.3256 6.43691 35.1745 5.76989C34.9312 4.66433 34.2052 4.32896 33.2655 4.32896C32.8429 4.34145 32.4334 4.47815 32.088 4.72195C31.7426 4.96575 31.4767 5.30585 31.3234 5.69985C30.988 6.54008 31.0212 7.94416 31.0212 8.89126V17.7358C31.0193 17.8161 31.0016 17.8953 30.969 17.9688C30.9365 18.0423 30.8898 18.1086 30.8316 18.1641C30.7735 18.2195 30.7049 18.2629 30.63 18.2919C30.555 18.3208 30.4751 18.3347 30.3947 18.3328H27.1481C26.9929 18.3271 26.8459 18.2619 26.7375 18.1508C26.6291 18.0396 26.5676 17.891 26.5658 17.7358V8.89126C26.5658 7.04865 26.868 4.2958 24.5647 4.2958C22.2615 4.2958 22.3204 6.96389 22.3204 8.89126V17.7358C22.3137 17.8938 22.2457 18.043 22.1308 18.1517C22.0159 18.2604 21.8631 18.3201 21.705 18.318Z" fill="#2D2928"/>
<path fill-rule="evenodd" clip-rule="evenodd" d="M81.7521 0.140625C86.576 0.140625 89.1815 4.28281 89.1815 9.5453C89.1815 14.6346 86.3033 18.6699 81.7521 18.6699C77.0203 18.6699 74.4443 14.5277 74.4443 9.37206C74.4443 4.21644 77.0387 0.140625 81.7521 0.140625ZM81.7816 3.54576C79.3862 3.54576 79.2351 6.80718 79.2351 8.8451C79.2351 10.883 79.2056 15.2316 81.7521 15.2316C84.2986 15.2316 84.3907 11.7196 84.3907 9.58214C84.3907 8.17808 84.3318 6.49393 83.9043 5.15988C83.5431 4.00273 82.8134 3.54576 81.7816 3.54576Z" fill="#2D2928"/>
<path fill-rule="evenodd" clip-rule="evenodd" d="M95.4351 18.3129H92.1995C92.0443 18.3072 91.8973 18.2421 91.7889 18.1309C91.6804 18.0198 91.619 17.8711 91.6172 17.7159V1.0366C91.6354 0.884206 91.7096 0.744026 91.8254 0.643247C91.9412 0.542468 92.0902 0.488281 92.2437 0.491196H95.2545C95.3883 0.49513 95.5172 0.542583 95.6216 0.626377C95.726 0.710172 95.8003 0.825742 95.8331 0.955537V3.50572H95.8957C96.8023 1.22826 98.0774 0.13743 100.318 0.13743C101.067 0.102514 101.813 0.266113 102.479 0.611667C103.144 0.957221 103.707 1.47246 104.11 2.10532C104.958 3.43568 104.958 5.68365 104.958 7.29778V17.7896C104.935 17.9377 104.86 18.0725 104.745 18.1688C104.63 18.2651 104.485 18.3164 104.335 18.3129H101.077C100.935 18.3059 100.8 18.25 100.694 18.1546C100.589 18.0592 100.52 17.9303 100.499 17.7896V8.73502C100.499 6.91084 100.712 4.24276 98.468 4.24276C98.0595 4.2605 97.6649 4.39582 97.3315 4.63247C96.998 4.86913 96.7401 5.19706 96.5885 5.57681C96.1873 6.57906 96.0112 7.6572 96.0726 8.73502V17.7159C96.0659 17.8791 95.9953 18.0332 95.876 18.1449C95.7568 18.2565 95.5984 18.3169 95.4351 18.3129Z" fill="#2D2928"/>
<path fill-rule="evenodd" clip-rule="evenodd" d="M52.1486 10.3554C52.1486 11.6195 52.178 12.6734 51.5405 13.8011C51.3317 14.226 51.0125 14.587 50.6164 14.8463C50.2203 15.1056 49.7618 15.2537 49.2888 15.2752C48.0432 15.2752 47.3136 14.3244 47.3136 12.9166C47.3136 10.1491 49.7974 9.64787 52.1486 9.64787V10.3554ZM55.4247 18.275C55.3193 18.3644 55.1892 18.4198 55.0517 18.4336C54.9141 18.4474 54.7756 18.4191 54.6545 18.3523C53.9147 17.747 53.2904 17.013 52.8119 16.1855C51.0283 18.0023 49.7642 18.5477 47.4536 18.5477C44.7192 18.5477 42.5928 16.8598 42.5928 13.4842C42.5557 12.3506 42.8681 11.233 43.4878 10.283C44.1075 9.33299 45.0044 8.59662 46.0569 8.17378C47.8184 7.39989 50.2802 7.25985 52.167 7.06822V6.64445C52.167 5.87056 52.226 4.95662 51.7727 4.2896C51.5587 4.01275 51.2813 3.79153 50.9637 3.64464C50.6462 3.49774 50.298 3.42947 49.9485 3.44567C48.7066 3.44567 47.6084 4.07954 47.3357 5.39516C47.3193 5.54242 47.2554 5.68034 47.1537 5.78806C47.052 5.89578 46.9179 5.96744 46.7718 5.99216L43.621 5.65311C43.5435 5.64306 43.4689 5.61715 43.4019 5.57695C43.3349 5.53674 43.2769 5.48311 43.2316 5.41945C43.1863 5.35579 43.1546 5.28346 43.1385 5.20698C43.1225 5.13051 43.1223 5.05155 43.1382 4.97504C43.8753 1.15347 47.3099 0 50.4018 0C51.9827 0 54.0501 0.42012 55.2957 1.61781C56.8767 3.0919 56.7256 5.06346 56.7256 7.20826V12.2681C56.7256 13.7901 57.3558 14.4608 57.9528 15.2789C58.0669 15.3941 58.1309 15.5498 58.1309 15.7119C58.1309 15.8741 58.0669 16.0297 57.9528 16.1449C57.2894 16.7014 56.1102 17.7222 55.4616 18.3008L55.4247 18.275Z" fill="#2D2928"/>
<path fill-rule="evenodd" clip-rule="evenodd" d="M9.55875 10.3554C9.55875 11.6195 9.58822 12.6734 8.95068 13.8011C8.74246 14.2257 8.42395 14.5866 8.02847 14.8459C7.633 15.1052 7.17512 15.2535 6.70271 15.2752C5.4571 15.2752 4.72744 14.3244 4.72744 12.9166C4.72744 10.1491 7.20758 9.64787 9.55875 9.64787V10.3554ZM12.8349 18.275C12.7295 18.3644 12.5994 18.4198 12.4618 18.4336C12.3243 18.4474 12.1858 18.4191 12.0647 18.3523C11.3248 17.747 10.7006 17.013 10.2221 16.1855C8.43841 18.0023 7.17442 18.5477 4.86748 18.5477C2.12936 18.5477 0.00296691 16.8598 0.00296691 13.4842C-0.0341834 12.3506 0.278304 11.233 0.897999 10.283C1.51769 9.33299 2.41461 8.59662 3.46708 8.17378C5.2323 7.39989 7.694 7.25985 9.57715 7.06822V6.64445C9.57715 5.87056 9.63613 4.95662 9.18285 4.2896C8.96712 4.01012 8.68668 3.78724 8.36569 3.64023C8.04469 3.49321 7.69277 3.42645 7.34024 3.44567C6.10201 3.44567 5.00014 4.07954 4.72744 5.39516C4.71109 5.54242 4.64721 5.68034 4.54547 5.78806C4.44373 5.89578 4.30968 5.96744 4.16359 5.99216L1.0164 5.65311C0.93858 5.64353 0.863584 5.61794 0.796152 5.57794C0.728719 5.53793 0.670327 5.48438 0.624622 5.42067C0.578917 5.35696 0.546893 5.28445 0.530602 5.20775C0.514311 5.13105 0.514111 5.05183 0.529972 4.97504C1.26702 1.15347 4.70531 0 7.79352 0C9.37447 0 11.4419 0.42012 12.6875 1.61781C14.2684 3.0919 14.1174 5.06346 14.1174 7.20826V12.2681C14.1174 13.7901 14.7475 14.4608 15.3445 15.2789C15.4586 15.3941 15.5226 15.5498 15.5226 15.7119C15.5226 15.8741 15.4586 16.0297 15.3445 16.1449C14.6812 16.7014 13.5019 17.7222 12.8533 18.3008L12.8349 18.275Z" fill="#2D2928"/>
</svg>
